<svg xmlns="http://www.w3.org/2000/svg" xmlns:xlink="http://www.w3.org/1999/xlink" width="1000" zoomAndPan="magnify" viewBox="15 281 720 187" height="1000" preserveAspectRatio="xMidYMid meet" version="1.0"><defs><g/><clipPath id="16cdb3e799"><rect x="0" width="720" y="0" height="187"/></clipPath></defs><g transform="matrix(1, 0, 0, 1, 15, 281)"><g clip-path="url(#16cdb3e799)"><g fill="#eeede8" fill-opacity="1"><g transform="translate(0.732272, 141.596902)"><g><path d="M 1.9375 -100.34375 L 1.9375 -129.84375 C 1.9375 -132.820312 2.84375 -135.21875 4.65625 -137.03125 C 6.46875 -138.84375 8.863281 -139.75 11.84375 -139.75 L 99.375 -139.75 C 102.351562 -139.75 104.75 -138.84375 106.5625 -137.03125 C 108.375 -135.21875 109.28125 -132.820312 109.28125 -129.84375 L 109.28125 -100.34375 C 109.28125 -98.851562 108.757812 -97.65625 107.71875 -96.75 C 106.6875 -95.84375 105.457031 -95.390625 104.03125 -95.390625 C 102.03125 -95.390625 100.171875 -95.773438 98.453125 -96.546875 C 96.734375 -97.328125 95.03125 -98.316406 93.34375 -99.515625 C 91.664062 -100.710938 89.9375 -101.894531 88.15625 -103.0625 C 86.382812 -104.226562 84.414062 -105.195312 82.25 -105.96875 C 80.082031 -106.75 77.640625 -107.140625 74.921875 -107.140625 L 73.46875 -107.140625 L 73.46875 -69.875 C 73.46875 -62.945312 73.675781 -56.976562 74.09375 -51.96875 C 74.507812 -46.957031 75.054688 -42.640625 75.734375 -39.015625 C 76.421875 -35.390625 77.132812 -32.25 77.875 -29.59375 C 78.625 -26.945312 79.335938 -24.554688 80.015625 -22.421875 C 80.691406 -20.285156 81.238281 -18.148438 81.65625 -16.015625 C 82.082031 -13.878906 82.296875 -11.484375 82.296875 -8.828125 C 82.296875 -6.429688 81.726562 -4.617188 80.59375 -3.390625 C 79.46875 -2.160156 78.078125 -1.300781 76.421875 -0.8125 C 74.773438 -0.332031 73.140625 -0.078125 71.515625 -0.046875 C 69.898438 -0.015625 68.578125 0 67.546875 0 L 42.5 0 C 41.46875 0 40.140625 -0.015625 38.515625 -0.046875 C 36.898438 -0.078125 35.269531 -0.332031 33.625 -0.8125 C 31.976562 -1.300781 30.585938 -2.160156 29.453125 -3.390625 C 28.316406 -4.617188 27.75 -6.429688 27.75 -8.828125 C 27.75 -11.484375 27.957031 -13.878906 28.375 -16.015625 C 28.800781 -18.148438 29.351562 -20.285156 30.03125 -22.421875 C 30.71875 -24.554688 31.429688 -26.945312 32.171875 -29.59375 C 32.910156 -32.25 33.617188 -35.390625 34.296875 -39.015625 C 34.984375 -42.640625 35.535156 -46.957031 35.953125 -51.96875 C 36.378906 -56.976562 36.59375 -62.945312 36.59375 -69.875 L 36.59375 -107.140625 L 36.296875 -107.140625 C 33.578125 -107.140625 31.132812 -106.75 28.96875 -105.96875 C 26.800781 -105.195312 24.828125 -104.226562 23.046875 -103.0625 C 21.265625 -101.894531 19.53125 -100.710938 17.84375 -99.515625 C 16.164062 -98.316406 14.46875 -97.328125 12.75 -96.546875 C 11.039062 -95.773438 9.1875 -95.390625 7.1875 -95.390625 C 5.757812 -95.390625 4.523438 -95.84375 3.484375 -96.75 C 2.453125 -97.65625 1.9375 -98.851562 1.9375 -100.34375 Z M 1.9375 -100.34375 "/></g></g></g><g fill="#eeede8" fill-opacity="1"><g transform="translate(111.945822, 141.596902)"><g><path d="M 0.96875 -30.46875 C 0.96875 -33.96875 1.175781 -36.945312 1.59375 -39.40625 C 2.019531 -41.863281 2.488281 -44.125 3 -46.1875 C 3.519531 -48.257812 3.988281 -50.378906 4.40625 -52.546875 C 4.832031 -54.710938 5.046875 -57.253906 5.046875 -60.171875 C 5.046875 -63.015625 4.847656 -65.566406 4.453125 -67.828125 C 4.066406 -70.097656 3.597656 -72.25 3.046875 -74.28125 C 2.503906 -76.320312 2.035156 -78.441406 1.640625 -80.640625 C 1.253906 -82.847656 1.0625 -85.304688 1.0625 -88.015625 C 1.0625 -90.347656 1.675781 -92.175781 2.90625 -93.5 C 4.132812 -94.832031 5.523438 -95.753906 7.078125 -96.265625 C 8.628906 -96.785156 9.859375 -97.046875 10.765625 -97.046875 L 30.375 -97.046875 C 33.09375 -97.046875 35.320312 -96.21875 37.0625 -94.5625 C 38.8125 -92.914062 40.171875 -90.816406 41.140625 -88.265625 C 42.117188 -85.710938 42.785156 -82.992188 43.140625 -80.109375 C 43.492188 -77.234375 43.671875 -74.566406 43.671875 -72.109375 C 43.671875 -67.191406 43.3125 -62.789062 42.59375 -58.90625 C 41.882812 -55.019531 41.0625 -51.539062 40.125 -48.46875 C 39.1875 -45.394531 38.363281 -42.628906 37.65625 -40.171875 C 36.945312 -37.710938 36.59375 -35.414062 36.59375 -33.28125 C 36.59375 -31.019531 37.007812 -28.9375 37.84375 -27.03125 C 38.6875 -25.125 40.046875 -24.171875 41.921875 -24.171875 C 44.117188 -24.171875 45.992188 -25.109375 47.546875 -26.984375 C 49.097656 -28.859375 50.359375 -31.316406 51.328125 -34.359375 C 52.304688 -37.398438 53.019531 -40.664062 53.46875 -44.15625 C 53.925781 -47.644531 54.15625 -51.039062 54.15625 -54.34375 C 54.15625 -58.675781 53.992188 -62.476562 53.671875 -65.75 C 53.347656 -69.019531 52.972656 -71.929688 52.546875 -74.484375 C 52.128906 -77.035156 51.757812 -79.425781 51.4375 -81.65625 C 51.113281 -83.894531 50.953125 -86.144531 50.953125 -88.40625 C 50.953125 -90.738281 51.40625 -92.503906 52.3125 -93.703125 C 53.21875 -94.898438 54.347656 -95.738281 55.703125 -96.21875 C 57.066406 -96.707031 58.457031 -96.96875 59.875 -97 C 61.300781 -97.03125 62.53125 -97.046875 63.5625 -97.046875 L 84.53125 -97.046875 C 85.5625 -97.046875 86.882812 -97.03125 88.5 -97 C 90.125 -96.96875 91.757812 -96.707031 93.40625 -96.21875 C 95.050781 -95.738281 96.441406 -94.898438 97.578125 -93.703125 C 98.710938 -92.503906 99.28125 -90.738281 99.28125 -88.40625 C 99.28125 -86.144531 98.84375 -83.601562 97.96875 -80.78125 C 97.09375 -77.96875 96.085938 -74.796875 94.953125 -71.265625 C 93.828125 -67.742188 92.828125 -63.800781 91.953125 -59.4375 C 91.078125 -55.070312 90.640625 -50.171875 90.640625 -44.734375 C 90.640625 -40.398438 91.078125 -36.503906 91.953125 -33.046875 C 92.828125 -29.585938 93.863281 -26.429688 95.0625 -23.578125 C 96.257812 -20.734375 97.289062 -18.097656 98.15625 -15.671875 C 99.03125 -13.242188 99.46875 -10.898438 99.46875 -8.640625 C 99.46875 -6.304688 98.984375 -4.539062 98.015625 -3.34375 C 97.046875 -2.144531 95.832031 -1.300781 94.375 -0.8125 C 92.914062 -0.332031 91.457031 -0.078125 90 -0.046875 C 88.550781 -0.015625 87.3125 0 86.28125 0 L 68.421875 0 C 64.859375 0 62.023438 -0.582031 59.921875 -1.75 C 57.816406 -2.914062 56.21875 -4.820312 55.125 -7.46875 C 54.34375 -5.976562 52.769531 -4.554688 50.40625 -3.203125 C 48.050781 -1.847656 45.382812 -0.734375 42.40625 0.140625 C 39.4375 1.015625 36.625 1.453125 33.96875 1.453125 C 25.75 1.453125 19.226562 0.078125 14.40625 -2.671875 C 9.59375 -5.421875 6.148438 -9.1875 4.078125 -13.96875 C 2.003906 -18.757812 0.96875 -24.257812 0.96875 -30.46875 Z M 0.96875 -30.46875 "/></g></g></g><g fill="#eeede8" fill-opacity="1"><g transform="translate(212.387382, 141.596902)"><g><path d="M 0.96875 -83.359375 C 0.96875 -85.628906 1.875 -87.394531 3.6875 -88.65625 C 5.5 -89.914062 7.796875 -90.945312 10.578125 -91.75 C 13.359375 -92.5625 16.207031 -93.359375 19.125 -94.140625 C 20.28125 -94.460938 21.75 -94.863281 23.53125 -95.34375 C 25.3125 -95.832031 27.125 -96.316406 28.96875 -96.796875 C 30.8125 -97.285156 32.457031 -97.691406 33.90625 -98.015625 C 35.363281 -98.335938 36.421875 -98.5 37.078125 -98.5 C 38.890625 -98.5 40.617188 -97.800781 42.265625 -96.40625 C 43.910156 -95.019531 45.253906 -92.453125 46.296875 -88.703125 C 46.421875 -88.179688 46.628906 -87.757812 46.921875 -87.4375 C 47.210938 -87.113281 47.679688 -86.953125 48.328125 -86.953125 C 48.910156 -86.953125 49.976562 -87.535156 51.53125 -88.703125 C 53.082031 -89.867188 55.085938 -91.210938 57.546875 -92.734375 C 60.003906 -94.253906 62.914062 -95.59375 66.28125 -96.75 C 69.644531 -97.914062 73.460938 -98.5 77.734375 -98.5 C 83.617188 -98.5 88.375 -97.1875 92 -94.5625 C 95.625 -91.945312 98.289062 -88.34375 100 -83.75 C 101.71875 -79.15625 102.578125 -73.882812 102.578125 -67.9375 L 102.578125 -48.515625 C 102.578125 -44.054688 103.015625 -39.945312 103.890625 -36.1875 C 104.765625 -32.4375 105.800781 -28.960938 107 -25.765625 C 108.195312 -22.566406 109.226562 -19.554688 110.09375 -16.734375 C 110.96875 -13.921875 111.40625 -11.222656 111.40625 -8.640625 C 111.40625 -6.304688 110.835938 -4.539062 109.703125 -3.34375 C 108.578125 -2.144531 107.1875 -1.300781 105.53125 -0.8125 C 103.882812 -0.332031 102.253906 -0.078125 100.640625 -0.046875 C 99.023438 -0.015625 97.695312 0 96.65625 0 L 78.515625 0 C 77.671875 0 76.519531 0 75.0625 0 C 73.601562 0 72.03125 -0.109375 70.34375 -0.328125 C 68.664062 -0.554688 67.050781 -0.960938 65.5 -1.546875 C 63.945312 -2.128906 62.6875 -2.988281 61.71875 -4.125 C 60.75 -5.257812 60.265625 -6.765625 60.265625 -8.640625 C 60.265625 -12.972656 60.734375 -17.320312 61.671875 -21.6875 C 62.609375 -26.050781 63.546875 -30.46875 64.484375 -34.9375 C 65.421875 -39.40625 65.828125 -43.929688 65.703125 -48.515625 C 65.640625 -50.523438 65.476562 -52.644531 65.21875 -54.875 C 64.957031 -57.113281 64.503906 -59.21875 63.859375 -61.1875 C 63.210938 -63.15625 62.273438 -64.769531 61.046875 -66.03125 C 59.816406 -67.300781 58.226562 -67.9375 56.28125 -67.9375 C 54.21875 -67.9375 52.570312 -67.300781 51.34375 -66.03125 C 50.113281 -64.769531 49.207031 -63.15625 48.625 -61.1875 C 48.039062 -59.21875 47.664062 -57.097656 47.5 -54.828125 C 47.34375 -52.566406 47.265625 -50.460938 47.265625 -48.515625 C 47.265625 -44.765625 47.71875 -41.078125 48.625 -37.453125 C 49.53125 -33.835938 50.5625 -30.347656 51.71875 -26.984375 C 52.882812 -23.617188 53.921875 -20.398438 54.828125 -17.328125 C 55.734375 -14.253906 56.1875 -11.359375 56.1875 -8.640625 C 56.1875 -6.765625 55.703125 -5.257812 54.734375 -4.125 C 53.765625 -2.988281 52.503906 -2.128906 50.953125 -1.546875 C 49.398438 -0.960938 47.78125 -0.554688 46.09375 -0.328125 C 44.414062 -0.109375 42.847656 0 41.390625 0 C 39.929688 0 38.785156 0 37.953125 0 L 16.40625 0 C 15.363281 0 14.035156 -0.015625 12.421875 -0.046875 C 10.804688 -0.078125 9.171875 -0.332031 7.515625 -0.8125 C 5.867188 -1.300781 4.476562 -2.144531 3.34375 -3.34375 C 2.21875 -4.539062 1.65625 -6.304688 1.65625 -8.640625 C 1.65625 -11.222656 2.085938 -13.921875 2.953125 -16.734375 C 3.828125 -19.554688 4.863281 -22.566406 6.0625 -25.765625 C 7.257812 -28.960938 8.296875 -32.4375 9.171875 -36.1875 C 10.046875 -39.945312 10.484375 -44.054688 10.484375 -48.515625 C 10.484375 -52.785156 10.160156 -56.410156 9.515625 -59.390625 C 8.867188 -62.367188 8.070312 -64.925781 7.125 -67.0625 C 6.1875 -69.195312 5.25 -71.101562 4.3125 -72.78125 C 3.375 -74.46875 2.582031 -76.132812 1.9375 -77.78125 C 1.289062 -79.425781 0.96875 -81.285156 0.96875 -83.359375 Z M 0.96875 -83.359375 "/></g></g></g><g fill="#eeede8" fill-opacity="1"><g transform="translate(318.942625, 141.596902)"><g><path d="M 2.421875 -48.515625 C 2.421875 -55.242188 3.179688 -61.164062 4.703125 -66.28125 C 6.222656 -71.394531 8.273438 -75.796875 10.859375 -79.484375 C 13.453125 -83.171875 16.332031 -86.226562 19.5 -88.65625 C 22.675781 -91.082031 25.945312 -93.019531 29.3125 -94.46875 C 32.675781 -95.925781 35.910156 -96.960938 39.015625 -97.578125 C 42.117188 -98.191406 44.835938 -98.5 47.171875 -98.5 C 51.367188 -98.5625 54.710938 -98.460938 57.203125 -98.203125 C 59.703125 -97.953125 61.773438 -97.695312 63.421875 -97.4375 C 65.066406 -97.175781 66.703125 -97.046875 68.328125 -97.046875 C 71.691406 -97.046875 74.40625 -97.175781 76.46875 -97.4375 C 78.539062 -97.695312 80.335938 -97.9375 81.859375 -98.15625 C 83.378906 -98.382812 84.882812 -98.5 86.375 -98.5 C 87.40625 -98.5 88.613281 -98.367188 90 -98.109375 C 91.394531 -97.847656 92.769531 -97.328125 94.125 -96.546875 C 95.488281 -95.773438 96.625 -94.675781 97.53125 -93.25 C 98.4375 -91.832031 98.890625 -89.960938 98.890625 -87.640625 C 98.890625 -85.367188 98.550781 -83.003906 97.875 -80.546875 C 97.195312 -78.085938 96.4375 -75.367188 95.59375 -72.390625 C 94.75 -69.421875 93.988281 -65.992188 93.3125 -62.109375 C 92.632812 -58.222656 92.296875 -53.691406 92.296875 -48.515625 C 92.296875 -44.054688 92.535156 -40.253906 93.015625 -37.109375 C 93.503906 -33.972656 94.117188 -31.253906 94.859375 -28.953125 C 95.609375 -26.660156 96.351562 -24.65625 97.09375 -22.9375 C 97.84375 -21.226562 98.457031 -19.597656 98.9375 -18.046875 C 99.425781 -16.492188 99.671875 -14.84375 99.671875 -13.09375 C 99.671875 -10.25 98.566406 -7.726562 96.359375 -5.53125 C 94.160156 -3.332031 91.21875 -1.617188 87.53125 -0.390625 C 83.84375 0.835938 79.703125 1.453125 75.109375 1.453125 C 73.109375 1.453125 71.554688 1.160156 70.453125 0.578125 C 69.359375 -0.00390625 68.46875 -0.664062 67.78125 -1.40625 C 67.101562 -2.144531 66.375 -2.804688 65.59375 -3.390625 C 64.820312 -3.972656 63.789062 -4.265625 62.5 -4.265625 C 61.070312 -4.265625 59.804688 -3.972656 58.703125 -3.390625 C 57.609375 -2.804688 56.363281 -2.144531 54.96875 -1.40625 C 53.582031 -0.664062 51.851562 -0.00390625 49.78125 0.578125 C 47.707031 1.160156 44.992188 1.453125 41.640625 1.453125 C 36.265625 1.453125 31.195312 0.257812 26.4375 -2.125 C 21.6875 -4.519531 17.515625 -7.914062 13.921875 -12.3125 C 10.335938 -16.71875 7.523438 -21.992188 5.484375 -28.140625 C 3.441406 -34.285156 2.421875 -41.078125 2.421875 -48.515625 Z M 47.9375 -72.875 C 45.351562 -72.875 43.265625 -70.640625 41.671875 -66.171875 C 40.085938 -61.710938 39.296875 -55.828125 39.296875 -48.515625 C 39.296875 -41.273438 40.085938 -35.421875 41.671875 -30.953125 C 43.265625 -26.492188 45.351562 -24.265625 47.9375 -24.265625 C 50.53125 -24.265625 52.617188 -26.492188 54.203125 -30.953125 C 55.785156 -35.421875 56.578125 -41.273438 56.578125 -48.515625 C 56.578125 -55.828125 55.785156 -61.710938 54.203125 -66.171875 C 52.617188 -70.640625 50.53125 -72.875 47.9375 -72.875 Z M 47.9375 -72.875 "/></g></g></g><g fill="#eeede8" fill-opacity="1"><g transform="translate(419.481232, 141.596902)"><g><path d="M 1.9375 -8.828125 C 1.9375 -11.484375 2.144531 -13.878906 2.5625 -16.015625 C 2.988281 -18.148438 3.539062 -20.285156 4.21875 -22.421875 C 4.894531 -24.554688 5.601562 -26.945312 6.34375 -29.59375 C 7.09375 -32.25 7.804688 -35.390625 8.484375 -39.015625 C 9.171875 -42.640625 9.722656 -46.957031 10.140625 -51.96875 C 10.554688 -56.976562 10.765625 -62.945312 10.765625 -69.875 C 10.765625 -76.789062 10.554688 -82.753906 10.140625 -87.765625 C 9.722656 -92.785156 9.171875 -97.109375 8.484375 -100.734375 C 7.804688 -104.359375 7.09375 -107.492188 6.34375 -110.140625 C 5.601562 -112.796875 4.894531 -115.191406 4.21875 -117.328125 C 3.539062 -119.460938 2.988281 -121.613281 2.5625 -123.78125 C 2.144531 -125.945312 1.9375 -128.328125 1.9375 -130.921875 C 1.9375 -133.304688 2.503906 -135.113281 3.640625 -136.34375 C 4.773438 -137.570312 6.164062 -138.429688 7.8125 -138.921875 C 9.457031 -139.410156 11.085938 -139.671875 12.703125 -139.703125 C 14.328125 -139.734375 15.65625 -139.75 16.6875 -139.75 L 35.90625 -139.75 C 37.195312 -139.75 38.585938 -139.617188 40.078125 -139.359375 C 41.566406 -139.097656 42.941406 -138.613281 44.203125 -137.90625 C 45.460938 -137.195312 46.414062 -136.097656 47.0625 -134.609375 L 47.0625 -134.703125 L 66.375 -92.484375 C 67.28125 -90.609375 68.253906 -89.671875 69.296875 -89.671875 C 70.390625 -89.671875 71.359375 -90.578125 72.203125 -92.390625 C 74.140625 -96.460938 76.078125 -100.828125 78.015625 -105.484375 C 79.960938 -110.148438 81.988281 -114.890625 84.09375 -119.703125 C 86.195312 -124.523438 88.441406 -129.203125 90.828125 -133.734375 C 91.347656 -135.472656 92.253906 -136.765625 93.546875 -137.609375 C 94.847656 -138.453125 96.289062 -139.019531 97.875 -139.3125 C 99.457031 -139.601562 100.925781 -139.75 102.28125 -139.75 L 130.234375 -139.75 C 131.273438 -139.75 132.601562 -139.734375 134.21875 -139.703125 C 135.832031 -139.671875 137.460938 -139.410156 139.109375 -138.921875 C 140.765625 -138.429688 142.15625 -137.570312 143.28125 -136.34375 C 144.414062 -135.113281 144.984375 -133.304688 144.984375 -130.921875 C 144.984375 -128.328125 144.769531 -125.945312 144.34375 -123.78125 C 143.925781 -121.613281 143.378906 -119.460938 142.703125 -117.328125 C 142.023438 -115.191406 141.3125 -112.796875 140.5625 -110.140625 C 139.820312 -107.492188 139.113281 -104.359375 138.4375 -100.734375 C 137.757812 -97.109375 137.207031 -92.785156 136.78125 -87.765625 C 136.363281 -82.753906 136.15625 -76.789062 136.15625 -69.875 C 136.15625 -62.945312 136.363281 -56.976562 136.78125 -51.96875 C 137.207031 -46.957031 137.757812 -42.640625 138.4375 -39.015625 C 139.113281 -35.390625 139.820312 -32.25 140.5625 -29.59375 C 141.3125 -26.945312 142.023438 -24.554688 142.703125 -22.421875 C 143.378906 -20.285156 143.925781 -18.148438 144.34375 -16.015625 C 144.769531 -13.878906 144.984375 -11.484375 144.984375 -8.828125 C 144.984375 -6.429688 144.414062 -4.617188 143.28125 -3.390625 C 142.15625 -2.160156 140.765625 -1.300781 139.109375 -0.8125 C 137.460938 -0.332031 135.832031 -0.078125 134.21875 -0.046875 C 132.601562 -0.015625 131.273438 0 130.234375 0 L 105.203125 0 C 103.578125 0 101.90625 -0.0625 100.1875 -0.1875 C 98.476562 -0.320312 96.878906 -0.644531 95.390625 -1.15625 C 93.910156 -1.675781 92.71875 -2.550781 91.8125 -3.78125 C 90.90625 -5.007812 90.453125 -6.691406 90.453125 -8.828125 C 90.453125 -11.484375 90.613281 -13.878906 90.9375 -16.015625 C 91.257812 -18.148438 91.675781 -20.285156 92.1875 -22.421875 C 92.707031 -24.554688 93.242188 -26.945312 93.796875 -29.59375 C 94.347656 -32.25 94.878906 -35.390625 95.390625 -39.015625 C 95.910156 -42.640625 96.332031 -46.957031 96.65625 -51.96875 C 96.976562 -56.976562 97.140625 -62.945312 97.140625 -69.875 L 71.140625 -23.875 C 70.742188 -22.90625 70.109375 -22.160156 69.234375 -21.640625 C 68.367188 -21.117188 67.484375 -20.859375 66.578125 -20.859375 C 64.628906 -20.859375 63.171875 -21.832031 62.203125 -23.78125 L 38.921875 -67.9375 C 38.984375 -61.332031 39.222656 -55.617188 39.640625 -50.796875 C 40.066406 -45.984375 40.617188 -41.828125 41.296875 -38.328125 C 41.972656 -34.835938 42.679688 -31.796875 43.421875 -29.203125 C 44.171875 -26.617188 44.867188 -24.273438 45.515625 -22.171875 C 46.160156 -20.066406 46.691406 -17.960938 47.109375 -15.859375 C 47.535156 -13.765625 47.75 -11.421875 47.75 -8.828125 C 47.75 -6.691406 47.296875 -5.007812 46.390625 -3.78125 C 45.484375 -2.550781 44.285156 -1.675781 42.796875 -1.15625 C 41.304688 -0.644531 39.703125 -0.320312 37.984375 -0.1875 C 36.273438 -0.0625 34.613281 0 33 0 L 16.6875 0 C 15.65625 0 14.328125 -0.015625 12.703125 -0.046875 C 11.085938 -0.078125 9.457031 -0.332031 7.8125 -0.8125 C 6.164062 -1.300781 4.773438 -2.160156 3.640625 -3.390625 C 2.503906 -4.617188 1.9375 -6.429688 1.9375 -8.828125 Z M 1.9375 -8.828125 "/></g></g></g><g fill="#eeede8" fill-opacity="1"><g transform="translate(561.554964, 141.596902)"><g><path d="M 2.421875 -48.515625 C 2.421875 -55.242188 3.179688 -61.164062 4.703125 -66.28125 C 6.222656 -71.394531 8.273438 -75.796875 10.859375 -79.484375 C 13.453125 -83.171875 16.332031 -86.226562 19.5 -88.65625 C 22.675781 -91.082031 25.945312 -93.019531 29.3125 -94.46875 C 32.675781 -95.925781 35.910156 -96.960938 39.015625 -97.578125 C 42.117188 -98.191406 44.835938 -98.5 47.171875 -98.5 C 51.367188 -98.5625 54.710938 -98.460938 57.203125 -98.203125 C 59.703125 -97.953125 61.773438 -97.695312 63.421875 -97.4375 C 65.066406 -97.175781 66.703125 -97.046875 68.328125 -97.046875 C 71.691406 -97.046875 74.40625 -97.175781 76.46875 -97.4375 C 78.539062 -97.695312 80.335938 -97.9375 81.859375 -98.15625 C 83.378906 -98.382812 84.882812 -98.5 86.375 -98.5 C 87.40625 -98.5 88.613281 -98.367188 90 -98.109375 C 91.394531 -97.847656 92.769531 -97.328125 94.125 -96.546875 C 95.488281 -95.773438 96.625 -94.675781 97.53125 -93.25 C 98.4375 -91.832031 98.890625 -89.960938 98.890625 -87.640625 C 98.890625 -85.367188 98.550781 -83.003906 97.875 -80.546875 C 97.195312 -78.085938 96.4375 -75.367188 95.59375 -72.390625 C 94.75 -69.421875 93.988281 -65.992188 93.3125 -62.109375 C 92.632812 -58.222656 92.296875 -53.691406 92.296875 -48.515625 C 92.296875 -44.054688 92.535156 -40.253906 93.015625 -37.109375 C 93.503906 -33.972656 94.117188 -31.253906 94.859375 -28.953125 C 95.609375 -26.660156 96.351562 -24.65625 97.09375 -22.9375 C 97.84375 -21.226562 98.457031 -19.597656 98.9375 -18.046875 C 99.425781 -16.492188 99.671875 -14.84375 99.671875 -13.09375 C 99.671875 -10.25 98.566406 -7.726562 96.359375 -5.53125 C 94.160156 -3.332031 91.21875 -1.617188 87.53125 -0.390625 C 83.84375 0.835938 79.703125 1.453125 75.109375 1.453125 C 73.109375 1.453125 71.554688 1.160156 70.453125 0.578125 C 69.359375 -0.00390625 68.46875 -0.664062 67.78125 -1.40625 C 67.101562 -2.144531 66.375 -2.804688 65.59375 -3.390625 C 64.820312 -3.972656 63.789062 -4.265625 62.5 -4.265625 C 61.070312 -4.265625 59.804688 -3.972656 58.703125 -3.390625 C 57.609375 -2.804688 56.363281 -2.144531 54.96875 -1.40625 C 53.582031 -0.664062 51.851562 -0.00390625 49.78125 0.578125 C 47.707031 1.160156 44.992188 1.453125 41.640625 1.453125 C 36.265625 1.453125 31.195312 0.257812 26.4375 -2.125 C 21.6875 -4.519531 17.515625 -7.914062 13.921875 -12.3125 C 10.335938 -16.71875 7.523438 -21.992188 5.484375 -28.140625 C 3.441406 -34.285156 2.421875 -41.078125 2.421875 -48.515625 Z M 47.9375 -72.875 C 45.351562 -72.875 43.265625 -70.640625 41.671875 -66.171875 C 40.085938 -61.710938 39.296875 -55.828125 39.296875 -48.515625 C 39.296875 -41.273438 40.085938 -35.421875 41.671875 -30.953125 C 43.265625 -26.492188 45.351562 -24.265625 47.9375 -24.265625 C 50.53125 -24.265625 52.617188 -26.492188 54.203125 -30.953125 C 55.785156 -35.421875 56.578125 -41.273438 56.578125 -48.515625 C 56.578125 -55.828125 55.785156 -61.710938 54.203125 -66.171875 C 52.617188 -70.640625 50.53125 -72.875 47.9375 -72.875 Z M 47.9375 -72.875 "/></g></g></g><g fill="#eeede8" fill-opacity="1"><g transform="translate(662.093571, 141.596902)"><g><path d="M 33.28125 1.453125 C 27.269531 1.453125 21.820312 0.175781 16.9375 -2.375 C 12.050781 -4.9375 8.164062 -8.65625 5.28125 -13.53125 C 2.40625 -18.414062 0.96875 -24.320312 0.96875 -31.25 C 0.96875 -35.84375 1.550781 -40.238281 2.71875 -44.4375 C 3.882812 -48.644531 5.335938 -52.625 7.078125 -56.375 C 8.828125 -60.132812 10.554688 -63.628906 12.265625 -66.859375 C 13.984375 -70.097656 15.425781 -73.054688 16.59375 -75.734375 C 17.757812 -78.421875 18.34375 -80.832031 18.34375 -82.96875 C 18.34375 -84.65625 18.113281 -85.789062 17.65625 -86.375 C 17.207031 -86.957031 16.53125 -87.25 15.625 -87.25 C 14.78125 -87.25 13.742188 -87.085938 12.515625 -86.765625 C 11.285156 -86.441406 9.960938 -86.28125 8.546875 -86.28125 C 5.828125 -86.28125 3.898438 -86.84375 2.765625 -87.96875 C 1.628906 -89.101562 1.0625 -90.675781 1.0625 -92.6875 C 1.0625 -95.144531 2.613281 -98.085938 5.71875 -101.515625 C 8.832031 -104.941406 12.847656 -108.921875 17.765625 -113.453125 C 20.671875 -116.171875 23.46875 -118.851562 26.15625 -121.5 C 28.84375 -124.15625 31.234375 -126.351562 33.328125 -128.09375 C 35.429688 -129.84375 37.035156 -130.71875 38.140625 -130.71875 C 39.429688 -130.71875 40.382812 -130.28125 41 -129.40625 C 41.613281 -128.539062 42.035156 -127.457031 42.265625 -126.15625 C 42.492188 -124.863281 42.609375 -123.632812 42.609375 -122.46875 L 42.609375 -97.046875 L 46.578125 -97.046875 C 48.128906 -97.046875 49.390625 -96.5625 50.359375 -95.59375 C 51.335938 -94.625 51.828125 -93.363281 51.828125 -91.8125 L 51.828125 -91.515625 C 51.828125 -89.960938 51.335938 -88.703125 50.359375 -87.734375 C 49.390625 -86.765625 48.128906 -86.28125 46.578125 -86.28125 L 42.609375 -86.28125 L 42.609375 -48.515625 C 42.609375 -42.566406 43.0625 -37.71875 43.96875 -33.96875 C 44.875 -30.21875 46.003906 -27.222656 47.359375 -24.984375 C 48.710938 -22.753906 50.066406 -20.957031 51.421875 -19.59375 C 52.785156 -18.238281 53.921875 -17.023438 54.828125 -15.953125 C 55.734375 -14.890625 56.1875 -13.582031 56.1875 -12.03125 C 56.1875 -9.894531 55.488281 -7.984375 54.09375 -6.296875 C 52.707031 -4.617188 50.878906 -3.195312 48.609375 -2.03125 C 46.347656 -0.875 43.875 -0.00390625 41.1875 0.578125 C 38.507812 1.160156 35.875 1.453125 33.28125 1.453125 Z M 33.28125 1.453125 "/></g></g></g></g></g></svg>