<svg xmlns="http://www.w3.org/2000/svg" xmlns:xlink="http://www.w3.org/1999/xlink" width="300" zoomAndPan="magnify" viewBox="0 0 224.87999 52.499999" height="70" preserveAspectRatio="xMidYMid meet" version="1.0"><defs><clipPath id="def9467b12"><path d="M 177.519531 12 L 188.21875 12 L 188.21875 39.484375 L 177.519531 39.484375 Z M 177.519531 12 " clip-rule="nonzero"/></clipPath><clipPath id="e6258131bb"><path d="M 206 20 L 223.761719 20 L 223.761719 40 L 206 40 Z M 206 20 " clip-rule="nonzero"/></clipPath></defs><path fill="#eeede8" d="M 1.402344 19.992188 L 1.402344 14.320312 C 1.402344 13.75 1.574219 13.289062 1.921875 12.941406 C 2.273438 12.59375 2.734375 12.417969 3.304688 12.417969 L 20.132812 12.417969 C 20.707031 12.417969 21.164062 12.59375 21.511719 12.941406 C 21.863281 13.289062 22.035156 13.75 22.035156 14.320312 L 22.035156 19.992188 C 22.035156 20.277344 21.9375 20.511719 21.738281 20.683594 C 21.542969 20.855469 21.304688 20.941406 21.03125 20.941406 C 20.644531 20.941406 20.289062 20.867188 19.957031 20.71875 C 19.628906 20.570312 19.300781 20.382812 18.976562 20.152344 C 18.65625 19.921875 18.324219 19.695312 17.980469 19.472656 C 17.636719 19.25 17.257812 19.0625 16.839844 18.914062 C 16.425781 18.761719 15.957031 18.6875 15.433594 18.6875 L 15.15625 18.6875 L 15.15625 25.851562 C 15.15625 27.183594 15.195312 28.332031 15.277344 29.296875 C 15.355469 30.261719 15.460938 31.089844 15.59375 31.785156 C 15.722656 32.480469 15.859375 33.085938 16 33.597656 C 16.144531 34.105469 16.285156 34.5625 16.414062 34.976562 C 16.542969 35.382812 16.648438 35.792969 16.730469 36.207031 C 16.808594 36.617188 16.851562 37.078125 16.851562 37.585938 C 16.851562 38.046875 16.742188 38.394531 16.527344 38.632812 C 16.308594 38.871094 16.039062 39.035156 15.722656 39.125 C 15.40625 39.21875 15.09375 39.269531 14.78125 39.273438 C 14.46875 39.28125 14.214844 39.285156 14.019531 39.285156 L 9.203125 39.285156 C 9.003906 39.285156 8.75 39.28125 8.4375 39.273438 C 8.128906 39.269531 7.8125 39.21875 7.496094 39.125 C 7.179688 39.035156 6.910156 38.871094 6.691406 38.632812 C 6.472656 38.394531 6.367188 38.046875 6.367188 37.585938 C 6.367188 37.078125 6.40625 36.617188 6.488281 36.207031 C 6.566406 35.792969 6.671875 35.382812 6.800781 34.976562 C 6.933594 34.5625 7.074219 34.105469 7.214844 33.597656 C 7.355469 33.085938 7.496094 32.480469 7.625 31.785156 C 7.757812 31.089844 7.863281 30.261719 7.945312 29.296875 C 8.023438 28.332031 8.066406 27.183594 8.066406 25.851562 L 8.066406 18.6875 L 8.007812 18.6875 C 7.484375 18.6875 7.015625 18.761719 6.597656 18.914062 C 6.183594 19.0625 5.804688 19.25 5.460938 19.472656 C 5.121094 19.695312 4.789062 19.921875 4.460938 20.152344 C 4.140625 20.382812 3.8125 20.570312 3.484375 20.71875 C 3.152344 20.867188 2.796875 20.941406 2.410156 20.941406 C 2.136719 20.941406 1.898438 20.855469 1.699219 20.683594 C 1.5 20.511719 1.402344 20.277344 1.402344 19.992188 Z M 1.402344 19.992188 " fill-opacity="1" fill-rule="nonzero"/><path fill="#eeede8" d="M 22.59375 33.425781 C 22.59375 32.753906 22.632812 32.183594 22.714844 31.710938 C 22.792969 31.238281 22.882812 30.804688 22.984375 30.40625 C 23.085938 30.007812 23.175781 29.601562 23.257812 29.183594 C 23.335938 28.765625 23.378906 28.277344 23.378906 27.71875 C 23.378906 27.167969 23.339844 26.679688 23.265625 26.246094 C 23.191406 25.808594 23.101562 25.394531 22.992188 25.007812 C 22.886719 24.613281 22.796875 24.203125 22.722656 23.78125 C 22.648438 23.355469 22.613281 22.882812 22.613281 22.363281 C 22.613281 21.914062 22.730469 21.5625 22.964844 21.308594 C 23.203125 21.054688 23.472656 20.875 23.769531 20.777344 C 24.066406 20.675781 24.304688 20.628906 24.480469 20.628906 L 28.25 20.628906 C 28.769531 20.628906 29.195312 20.789062 29.53125 21.105469 C 29.867188 21.421875 30.128906 21.824219 30.316406 22.316406 C 30.503906 22.808594 30.632812 23.328125 30.699219 23.882812 C 30.769531 24.4375 30.800781 24.949219 30.800781 25.425781 C 30.800781 26.367188 30.734375 27.214844 30.597656 27.960938 C 30.460938 28.707031 30.300781 29.375 30.121094 29.964844 C 29.941406 30.558594 29.78125 31.089844 29.648438 31.5625 C 29.507812 32.035156 29.441406 32.476562 29.441406 32.886719 C 29.441406 33.320312 29.523438 33.71875 29.683594 34.089844 C 29.84375 34.457031 30.105469 34.640625 30.46875 34.640625 C 30.886719 34.640625 31.25 34.460938 31.546875 34.097656 C 31.84375 33.734375 32.089844 33.265625 32.273438 32.679688 C 32.460938 32.097656 32.601562 31.46875 32.6875 30.796875 C 32.773438 30.125 32.816406 29.472656 32.816406 28.835938 C 32.816406 28.003906 32.785156 27.273438 32.726562 26.644531 C 32.664062 26.015625 32.589844 25.457031 32.511719 24.964844 C 32.429688 24.472656 32.359375 24.011719 32.292969 23.585938 C 32.230469 23.15625 32.199219 22.722656 32.199219 22.289062 C 32.199219 21.839844 32.285156 21.503906 32.460938 21.273438 C 32.636719 21.039062 32.855469 20.878906 33.113281 20.785156 C 33.378906 20.691406 33.644531 20.644531 33.917969 20.636719 C 34.195312 20.632812 34.429688 20.628906 34.628906 20.628906 L 38.660156 20.628906 C 38.855469 20.628906 39.109375 20.632812 39.421875 20.636719 C 39.734375 20.644531 40.046875 20.691406 40.363281 20.785156 C 40.679688 20.878906 40.949219 21.039062 41.167969 21.273438 C 41.382812 21.503906 41.492188 21.839844 41.492188 22.289062 C 41.492188 22.722656 41.40625 23.210938 41.242188 23.753906 C 41.074219 24.292969 40.878906 24.902344 40.660156 25.582031 C 40.441406 26.257812 40.25 27.019531 40.085938 27.855469 C 39.917969 28.695312 39.832031 29.640625 39.832031 30.683594 C 39.832031 31.519531 39.917969 32.265625 40.085938 32.933594 C 40.25 33.597656 40.449219 34.203125 40.679688 34.753906 C 40.910156 35.296875 41.109375 35.804688 41.277344 36.269531 C 41.445312 36.738281 41.527344 37.1875 41.527344 37.621094 C 41.527344 38.070312 41.4375 38.410156 41.25 38.644531 C 41.0625 38.875 40.828125 39.035156 40.550781 39.125 C 40.269531 39.21875 39.988281 39.269531 39.707031 39.273438 C 39.429688 39.28125 39.191406 39.285156 38.992188 39.285156 L 35.5625 39.285156 C 34.878906 39.285156 34.332031 39.171875 33.925781 38.949219 C 33.523438 38.722656 33.21875 38.359375 33.003906 37.847656 C 32.855469 38.136719 32.554688 38.410156 32.097656 38.671875 C 31.644531 38.929688 31.132812 39.144531 30.5625 39.3125 C 29.988281 39.480469 29.445312 39.5625 28.9375 39.5625 C 27.355469 39.5625 26.105469 39.300781 25.175781 38.773438 C 24.25 38.242188 23.585938 37.519531 23.1875 36.601562 C 22.789062 35.679688 22.59375 34.621094 22.59375 33.425781 Z M 22.59375 33.425781 " fill-opacity="1" fill-rule="nonzero"/><path fill="#eeede8" d="M 41.898438 23.261719 C 41.898438 22.824219 42.074219 22.484375 42.417969 22.242188 C 42.769531 22 43.210938 21.800781 43.746094 21.644531 C 44.28125 21.488281 44.832031 21.335938 45.390625 21.1875 C 45.613281 21.125 45.894531 21.046875 46.238281 20.953125 C 46.578125 20.859375 46.929688 20.765625 47.28125 20.675781 C 47.636719 20.582031 47.953125 20.503906 48.234375 20.441406 C 48.515625 20.378906 48.71875 20.347656 48.839844 20.347656 C 49.1875 20.347656 49.519531 20.480469 49.835938 20.75 C 50.152344 21.015625 50.414062 21.507812 50.613281 22.234375 C 50.640625 22.332031 50.679688 22.414062 50.734375 22.476562 C 50.792969 22.539062 50.882812 22.566406 51.003906 22.566406 C 51.117188 22.566406 51.320312 22.457031 51.617188 22.234375 C 51.917969 22.007812 52.304688 21.75 52.773438 21.457031 C 53.246094 21.164062 53.808594 20.90625 54.453125 20.683594 C 55.101562 20.460938 55.835938 20.347656 56.65625 20.347656 C 57.789062 20.347656 58.703125 20.601562 59.398438 21.105469 C 60.097656 21.605469 60.609375 22.300781 60.9375 23.1875 C 61.269531 24.066406 61.433594 25.082031 61.433594 26.222656 L 61.433594 29.957031 C 61.433594 30.8125 61.515625 31.601562 61.683594 32.324219 C 61.855469 33.046875 62.054688 33.714844 62.285156 34.328125 C 62.511719 34.945312 62.710938 35.523438 62.878906 36.066406 C 63.046875 36.609375 63.132812 37.128906 63.132812 37.621094 C 63.132812 38.070312 63.023438 38.410156 62.804688 38.644531 C 62.585938 38.875 62.320312 39.035156 62 39.125 C 61.683594 39.21875 61.371094 39.269531 61.058594 39.273438 C 60.746094 39.28125 60.492188 39.285156 60.296875 39.285156 L 56.808594 39.285156 C 56.644531 39.285156 56.421875 39.285156 56.144531 39.285156 C 55.867188 39.285156 55.566406 39.261719 55.238281 39.21875 C 54.917969 39.175781 54.605469 39.097656 54.304688 38.988281 C 54.007812 38.875 53.765625 38.710938 53.578125 38.496094 C 53.390625 38.273438 53.300781 37.984375 53.300781 37.621094 C 53.300781 36.789062 53.386719 35.953125 53.566406 35.113281 C 53.75 34.277344 53.929688 33.429688 54.113281 32.570312 C 54.289062 31.710938 54.367188 30.839844 54.34375 29.957031 C 54.332031 29.570312 54.300781 29.160156 54.25 28.734375 C 54.199219 28.304688 54.113281 27.902344 53.992188 27.523438 C 53.867188 27.140625 53.683594 26.832031 53.449219 26.589844 C 53.210938 26.34375 52.90625 26.222656 52.53125 26.222656 C 52.136719 26.222656 51.820312 26.34375 51.582031 26.589844 C 51.34375 26.832031 51.171875 27.140625 51.0625 27.523438 C 50.949219 27.902344 50.878906 28.308594 50.847656 28.742188 C 50.816406 29.179688 50.800781 29.582031 50.800781 29.957031 C 50.800781 30.679688 50.886719 31.386719 51.0625 32.082031 C 51.234375 32.777344 51.433594 33.449219 51.65625 34.097656 C 51.878906 34.746094 52.078125 35.363281 52.253906 35.953125 C 52.425781 36.546875 52.515625 37.101562 52.515625 37.621094 C 52.515625 37.984375 52.421875 38.273438 52.234375 38.496094 C 52.050781 38.710938 51.804688 38.875 51.507812 38.988281 C 51.210938 39.097656 50.898438 39.175781 50.574219 39.21875 C 50.25 39.261719 49.949219 39.285156 49.667969 39.285156 C 49.390625 39.285156 49.167969 39.285156 49.007812 39.285156 L 44.867188 39.285156 C 44.667969 39.285156 44.414062 39.28125 44.101562 39.273438 C 43.789062 39.269531 43.476562 39.21875 43.15625 39.125 C 42.84375 39.035156 42.574219 38.875 42.355469 38.644531 C 42.136719 38.410156 42.03125 38.070312 42.03125 37.621094 C 42.03125 37.128906 42.113281 36.609375 42.28125 36.066406 C 42.449219 35.523438 42.648438 34.945312 42.878906 34.328125 C 43.109375 33.714844 43.304688 33.046875 43.472656 32.324219 C 43.644531 31.601562 43.730469 30.8125 43.730469 29.957031 C 43.730469 29.136719 43.667969 28.441406 43.542969 27.867188 C 43.417969 27.292969 43.265625 26.804688 43.082031 26.394531 C 42.902344 25.984375 42.722656 25.617188 42.546875 25.292969 C 42.363281 24.96875 42.210938 24.648438 42.085938 24.332031 C 41.960938 24.015625 41.898438 23.65625 41.898438 23.261719 Z M 41.898438 23.261719 " fill-opacity="1" fill-rule="nonzero"/><path fill="#eeede8" d="M 62.660156 29.957031 C 62.660156 28.664062 62.804688 27.523438 63.097656 26.542969 C 63.390625 25.558594 63.785156 24.710938 64.285156 24.003906 C 64.78125 23.296875 65.335938 22.707031 65.945312 22.242188 C 66.554688 21.777344 67.183594 21.402344 67.828125 21.125 C 68.472656 20.84375 69.097656 20.644531 69.695312 20.523438 C 70.289062 20.40625 70.8125 20.347656 71.261719 20.347656 C 72.070312 20.335938 72.714844 20.355469 73.191406 20.40625 C 73.667969 20.453125 74.066406 20.503906 74.382812 20.554688 C 74.703125 20.601562 75.019531 20.628906 75.332031 20.628906 C 75.976562 20.628906 76.5 20.601562 76.894531 20.554688 C 77.296875 20.503906 77.640625 20.457031 77.929688 20.414062 C 78.226562 20.371094 78.515625 20.347656 78.800781 20.347656 C 78.996094 20.347656 79.230469 20.375 79.496094 20.421875 C 79.765625 20.472656 80.03125 20.570312 80.289062 20.71875 C 80.550781 20.867188 80.769531 21.082031 80.945312 21.355469 C 81.117188 21.628906 81.203125 21.988281 81.203125 22.4375 C 81.203125 22.871094 81.140625 23.324219 81.007812 23.796875 C 80.878906 24.273438 80.734375 24.796875 80.574219 25.367188 C 80.410156 25.9375 80.265625 26.597656 80.132812 27.347656 C 80.003906 28.09375 79.9375 28.960938 79.9375 29.957031 C 79.9375 30.8125 79.984375 31.542969 80.078125 32.148438 C 80.167969 32.75 80.285156 33.273438 80.429688 33.71875 C 80.574219 34.15625 80.71875 34.542969 80.859375 34.871094 C 81.003906 35.203125 81.121094 35.515625 81.214844 35.816406 C 81.308594 36.113281 81.351562 36.429688 81.351562 36.765625 C 81.351562 37.3125 81.140625 37.796875 80.71875 38.222656 C 80.296875 38.644531 79.730469 38.976562 79.023438 39.210938 C 78.3125 39.445312 77.519531 39.5625 76.636719 39.5625 C 76.25 39.5625 75.949219 39.507812 75.738281 39.394531 C 75.527344 39.285156 75.355469 39.15625 75.222656 39.015625 C 75.09375 38.875 74.953125 38.746094 74.804688 38.632812 C 74.65625 38.519531 74.460938 38.460938 74.210938 38.460938 C 73.9375 38.460938 73.691406 38.519531 73.484375 38.632812 C 73.273438 38.746094 73.03125 38.875 72.761719 39.015625 C 72.496094 39.15625 72.164062 39.285156 71.765625 39.394531 C 71.367188 39.507812 70.847656 39.5625 70.199219 39.5625 C 69.164062 39.5625 68.191406 39.332031 67.28125 38.875 C 66.367188 38.414062 65.5625 37.761719 64.875 36.917969 C 64.183594 36.070312 63.640625 35.054688 63.25 33.875 C 62.855469 32.691406 62.660156 31.386719 62.660156 29.957031 Z M 71.410156 25.269531 C 70.914062 25.269531 70.511719 25.703125 70.203125 26.5625 C 69.902344 27.417969 69.75 28.550781 69.75 29.957031 C 69.75 31.347656 69.902344 32.476562 70.203125 33.332031 C 70.511719 34.1875 70.914062 34.617188 71.410156 34.617188 C 71.910156 34.617188 72.3125 34.1875 72.613281 33.332031 C 72.917969 32.476562 73.070312 31.347656 73.070312 29.957031 C 73.070312 28.550781 72.917969 27.417969 72.613281 26.5625 C 72.3125 25.703125 71.910156 25.269531 71.410156 25.269531 Z M 71.410156 25.269531 " fill-opacity="1" fill-rule="nonzero"/><path fill="#eeede8" d="M 84.226562 39.285156 C 83.816406 39.285156 83.429688 39.253906 83.074219 39.191406 C 82.722656 39.128906 82.4375 39.003906 82.214844 38.820312 C 82 38.632812 81.890625 38.363281 81.890625 38.015625 C 81.890625 37.667969 81.941406 37.371094 82.039062 37.128906 C 82.140625 36.886719 82.277344 36.648438 82.453125 36.414062 C 82.625 36.175781 82.820312 35.910156 83.039062 35.609375 C 83.257812 35.3125 83.480469 34.9375 83.703125 34.492188 C 83.925781 34.042969 84.144531 33.476562 84.355469 32.792969 C 84.679688 31.746094 84.953125 30.84375 85.175781 30.085938 C 85.398438 29.328125 85.597656 28.660156 85.765625 28.078125 C 85.929688 27.5 86.082031 26.96875 86.21875 26.476562 C 86.359375 25.984375 86.492188 25.496094 86.621094 25.007812 C 86.753906 24.515625 86.898438 23.976562 87.058594 23.390625 C 87.222656 22.804688 87.40625 22.128906 87.613281 21.355469 C 87.816406 20.585938 88.066406 19.679688 88.367188 18.628906 C 88.566406 17.910156 88.707031 17.34375 88.785156 16.9375 C 88.867188 16.523438 88.914062 16.1875 88.925781 15.917969 C 88.9375 15.648438 88.933594 15.378906 88.90625 15.105469 C 88.882812 14.832031 88.859375 14.476562 88.832031 14.042969 C 88.832031 13.941406 88.839844 13.804688 88.851562 13.628906 C 88.863281 13.457031 88.914062 13.277344 89 13.089844 C 89.085938 12.902344 89.234375 12.742188 89.445312 12.613281 C 89.660156 12.484375 89.960938 12.417969 90.347656 12.417969 L 95.378906 12.417969 C 95.753906 12.417969 96.082031 12.425781 96.359375 12.4375 C 96.640625 12.449219 96.894531 12.519531 97.117188 12.640625 C 97.339844 12.765625 97.554688 12.988281 97.757812 13.3125 C 97.964844 13.636719 98.175781 14.101562 98.394531 14.710938 C 98.613281 15.324219 98.859375 16.125 99.132812 17.121094 C 99.480469 18.339844 99.78125 19.410156 100.027344 20.339844 C 100.277344 21.265625 100.5 22.097656 100.695312 22.835938 C 100.898438 23.578125 101.089844 24.292969 101.277344 24.984375 C 101.464844 25.671875 101.660156 26.386719 101.871094 27.128906 C 102.085938 27.867188 102.324219 28.691406 102.589844 29.601562 C 102.859375 30.511719 103.179688 31.574219 103.550781 32.792969 C 103.765625 33.476562 103.984375 34.042969 104.207031 34.492188 C 104.429688 34.9375 104.648438 35.3125 104.867188 35.609375 C 105.085938 35.910156 105.28125 36.175781 105.457031 36.414062 C 105.628906 36.648438 105.765625 36.886719 105.863281 37.128906 C 105.96875 37.371094 106.019531 37.667969 106.019531 38.015625 C 106.019531 38.363281 105.90625 38.632812 105.6875 38.820312 C 105.472656 39.003906 105.1875 39.128906 104.839844 39.191406 C 104.492188 39.253906 104.105469 39.285156 103.683594 39.285156 L 96.820312 39.285156 C 96.53125 39.285156 96.25 39.246094 95.96875 39.164062 C 95.691406 39.082031 95.460938 38.953125 95.277344 38.773438 C 95.097656 38.589844 95.007812 38.34375 95.007812 38.035156 C 95.007812 37.625 95.042969 37.296875 95.109375 37.054688 C 95.179688 36.8125 95.257812 36.582031 95.34375 36.363281 C 95.429688 36.148438 95.507812 35.878906 95.574219 35.566406 C 95.644531 35.246094 95.683594 34.808594 95.683594 34.246094 C 95.683594 33.9375 95.664062 33.609375 95.625 33.257812 L 90.847656 33.257812 C 90.859375 33.417969 90.878906 33.582031 90.902344 33.746094 C 90.929688 33.90625 90.945312 34.074219 90.960938 34.246094 C 91.035156 34.808594 91.125 35.246094 91.230469 35.566406 C 91.335938 35.878906 91.4375 36.148438 91.53125 36.363281 C 91.625 36.582031 91.703125 36.8125 91.773438 37.054688 C 91.839844 37.296875 91.875 37.625 91.875 38.035156 C 91.875 38.34375 91.78125 38.589844 91.601562 38.773438 C 91.421875 38.953125 91.191406 39.082031 90.914062 39.164062 C 90.636719 39.246094 90.351562 39.285156 90.0625 39.285156 Z M 90.886719 26.878906 L 94.207031 26.878906 C 94.042969 26.304688 93.878906 25.699219 93.703125 25.058594 C 93.53125 24.417969 93.335938 23.734375 93.125 23.015625 C 93 22.59375 92.875 22.242188 92.753906 21.957031 C 92.628906 21.667969 92.496094 21.535156 92.359375 21.5625 C 92.234375 21.574219 92.109375 21.746094 91.984375 22.074219 C 91.863281 22.40625 91.738281 22.808594 91.613281 23.289062 C 91.492188 23.765625 91.375 24.257812 91.265625 24.761719 C 91.160156 25.265625 91.078125 25.710938 91.015625 26.097656 C 90.953125 26.480469 90.910156 26.742188 90.886719 26.878906 Z M 90.886719 26.878906 " fill-opacity="1" fill-rule="nonzero"/><path fill="#eeede8" d="M 111.851562 39.5625 C 110.695312 39.5625 109.648438 39.316406 108.707031 38.828125 C 107.769531 38.335938 107.023438 37.621094 106.46875 36.683594 C 105.914062 35.742188 105.636719 34.605469 105.636719 33.277344 C 105.636719 32.394531 105.75 31.546875 105.972656 30.742188 C 106.199219 29.933594 106.476562 29.167969 106.8125 28.445312 C 107.148438 27.722656 107.484375 27.050781 107.8125 26.429688 C 108.140625 25.808594 108.417969 25.242188 108.640625 24.722656 C 108.863281 24.207031 108.976562 23.742188 108.976562 23.335938 C 108.976562 23.007812 108.933594 22.792969 108.847656 22.679688 C 108.757812 22.566406 108.628906 22.511719 108.457031 22.511719 C 108.296875 22.511719 108.09375 22.542969 107.859375 22.605469 C 107.621094 22.667969 107.367188 22.699219 107.097656 22.699219 C 106.574219 22.699219 106.199219 22.589844 105.980469 22.375 C 105.765625 22.152344 105.65625 21.851562 105.65625 21.46875 C 105.65625 20.996094 105.953125 20.429688 106.550781 19.769531 C 107.148438 19.109375 107.921875 18.34375 108.863281 17.476562 C 109.425781 16.953125 109.964844 16.4375 110.480469 15.929688 C 110.996094 15.417969 111.457031 14.996094 111.859375 14.660156 C 112.265625 14.324219 112.574219 14.15625 112.785156 14.15625 C 113.03125 14.15625 113.214844 14.238281 113.332031 14.40625 C 113.453125 14.574219 113.535156 14.78125 113.578125 15.03125 C 113.621094 15.28125 113.644531 15.515625 113.644531 15.738281 L 113.644531 20.628906 L 114.410156 20.628906 C 114.707031 20.628906 114.949219 20.722656 115.132812 20.910156 C 115.320312 21.097656 115.417969 21.335938 115.417969 21.636719 L 115.417969 21.691406 C 115.417969 21.988281 115.320312 22.230469 115.132812 22.417969 C 114.949219 22.605469 114.707031 22.699219 114.410156 22.699219 L 113.644531 22.699219 L 113.644531 29.957031 C 113.644531 31.101562 113.730469 32.035156 113.902344 32.753906 C 114.074219 33.476562 114.292969 34.054688 114.554688 34.484375 C 114.816406 34.910156 115.078125 35.257812 115.335938 35.519531 C 115.601562 35.777344 115.816406 36.011719 115.992188 36.214844 C 116.164062 36.417969 116.253906 36.671875 116.253906 36.972656 C 116.253906 37.378906 116.117188 37.746094 115.851562 38.070312 C 115.585938 38.394531 115.234375 38.667969 114.800781 38.894531 C 114.363281 39.117188 113.886719 39.285156 113.367188 39.394531 C 112.855469 39.507812 112.347656 39.5625 111.851562 39.5625 Z M 111.851562 39.5625 " fill-opacity="1" fill-rule="nonzero"/><path fill="#eeede8" d="M 118.324219 25.480469 C 118.324219 24.199219 118.238281 23.019531 118.070312 21.945312 C 117.902344 20.867188 117.703125 19.871094 117.472656 18.953125 C 117.246094 18.03125 117.046875 17.167969 116.875 16.363281 C 116.707031 15.5625 116.625 14.800781 116.625 14.082031 C 116.625 13.632812 116.734375 13.292969 116.949219 13.0625 C 117.167969 12.832031 117.4375 12.667969 117.753906 12.574219 C 118.070312 12.484375 118.386719 12.433594 118.695312 12.425781 C 119.007812 12.421875 119.261719 12.417969 119.460938 12.417969 L 124.066406 12.417969 C 124.269531 12.417969 124.523438 12.421875 124.835938 12.425781 C 125.144531 12.433594 125.460938 12.484375 125.777344 12.574219 C 126.09375 12.667969 126.359375 12.832031 126.574219 13.0625 C 126.792969 13.292969 126.90625 13.632812 126.90625 14.082031 C 126.90625 14.765625 126.824219 15.441406 126.664062 16.105469 C 126.503906 16.769531 126.3125 17.421875 126.09375 18.054688 C 125.875 18.6875 125.6875 19.304688 125.527344 19.90625 C 125.363281 20.511719 125.285156 21.09375 125.285156 21.652344 C 125.285156 21.976562 125.285156 22.1875 125.292969 22.289062 C 125.300781 22.390625 125.351562 22.4375 125.453125 22.4375 C 125.550781 22.4375 125.75 22.332031 126.046875 22.121094 C 126.34375 21.910156 126.753906 21.667969 127.265625 21.394531 C 127.785156 21.117188 128.410156 20.875 129.152344 20.664062 C 129.890625 20.453125 130.746094 20.347656 131.71875 20.347656 C 132.847656 20.347656 133.761719 20.601562 134.460938 21.105469 C 135.15625 21.605469 135.667969 22.300781 135.996094 23.1875 C 136.328125 24.066406 136.492188 25.082031 136.492188 26.222656 L 136.492188 31.074219 C 136.492188 31.910156 136.578125 32.636719 136.742188 33.265625 C 136.914062 33.894531 137.113281 34.457031 137.34375 34.949219 C 137.574219 35.441406 137.773438 35.902344 137.941406 36.332031 C 138.109375 36.757812 138.191406 37.1875 138.191406 37.621094 C 138.191406 38.070312 138.082031 38.410156 137.863281 38.644531 C 137.644531 38.875 137.378906 39.035156 137.058594 39.125 C 136.742188 39.21875 136.429688 39.269531 136.121094 39.273438 C 135.8125 39.28125 135.554688 39.285156 135.355469 39.285156 L 131.214844 39.285156 C 131.050781 39.285156 130.832031 39.285156 130.550781 39.285156 C 130.269531 39.285156 129.96875 39.261719 129.644531 39.21875 C 129.320312 39.175781 129.011719 39.097656 128.710938 38.988281 C 128.414062 38.875 128.171875 38.710938 127.988281 38.496094 C 127.800781 38.273438 127.707031 37.984375 127.707031 37.621094 C 127.707031 37.1875 127.792969 36.757812 127.960938 36.332031 C 128.125 35.902344 128.324219 35.441406 128.554688 34.949219 C 128.785156 34.457031 128.984375 33.894531 129.152344 33.265625 C 129.320312 32.636719 129.40625 31.910156 129.40625 31.074219 L 129.40625 28.707031 C 129.40625 28.34375 129.339844 27.972656 129.199219 27.585938 C 129.0625 27.199219 128.847656 26.878906 128.554688 26.617188 C 128.261719 26.355469 127.867188 26.222656 127.375 26.222656 C 126.863281 26.222656 126.449219 26.355469 126.128906 26.617188 C 125.8125 26.878906 125.582031 27.199219 125.4375 27.585938 C 125.296875 27.972656 125.222656 28.34375 125.222656 28.707031 L 125.222656 31.074219 C 125.222656 31.910156 125.308594 32.636719 125.476562 33.265625 C 125.644531 33.894531 125.84375 34.457031 126.074219 34.949219 C 126.304688 35.441406 126.503906 35.902344 126.671875 36.332031 C 126.839844 36.757812 126.921875 37.1875 126.921875 37.621094 C 126.921875 37.984375 126.832031 38.273438 126.644531 38.496094 C 126.460938 38.710938 126.214844 38.875 125.914062 38.988281 C 125.617188 39.097656 125.308594 39.175781 124.984375 39.21875 C 124.660156 39.261719 124.359375 39.285156 124.078125 39.285156 C 123.796875 39.285156 123.578125 39.285156 123.417969 39.285156 L 119.460938 39.285156 C 119.261719 39.285156 119.007812 39.28125 118.695312 39.273438 C 118.386719 39.269531 118.070312 39.21875 117.753906 39.125 C 117.4375 39.035156 117.167969 38.875 116.949219 38.644531 C 116.734375 38.410156 116.625 38.070312 116.625 37.621094 C 116.625 37.128906 116.664062 36.707031 116.746094 36.359375 C 116.824219 36.007812 116.929688 35.660156 117.0625 35.3125 C 117.195312 34.964844 117.332031 34.550781 117.472656 34.078125 C 117.617188 33.605469 117.753906 33.007812 117.882812 32.285156 C 118.015625 31.566406 118.121094 30.65625 118.203125 29.554688 C 118.285156 28.453125 118.324219 27.09375 118.324219 25.480469 Z M 118.324219 25.480469 " fill-opacity="1" fill-rule="nonzero"/><path fill="#eeede8" d="M 138.5625 37.621094 C 138.5625 37.128906 138.601562 36.707031 138.683594 36.359375 C 138.761719 36.007812 138.867188 35.660156 138.996094 35.3125 C 139.128906 34.964844 139.269531 34.550781 139.410156 34.078125 C 139.550781 33.605469 139.691406 33.007812 139.820312 32.285156 C 139.953125 31.566406 140.058594 30.65625 140.140625 29.554688 C 140.21875 28.453125 140.261719 27.09375 140.261719 25.480469 C 140.261719 24.1875 140.21875 23.070312 140.140625 22.132812 C 140.058594 21.191406 139.953125 20.382812 139.820312 19.703125 C 139.691406 19.027344 139.550781 18.441406 139.410156 17.953125 C 139.269531 17.460938 139.128906 17.015625 138.996094 16.609375 C 138.867188 16.207031 138.761719 15.804688 138.683594 15.402344 C 138.601562 15.003906 138.5625 14.5625 138.5625 14.082031 C 138.5625 13.632812 138.667969 13.292969 138.886719 13.0625 C 139.105469 12.832031 139.375 12.667969 139.691406 12.574219 C 140.007812 12.484375 140.320312 12.433594 140.632812 12.425781 C 140.945312 12.421875 141.199219 12.417969 141.398438 12.417969 L 146.214844 12.417969 C 146.410156 12.417969 146.664062 12.421875 146.976562 12.425781 C 147.285156 12.433594 147.601562 12.484375 147.917969 12.574219 C 148.234375 12.667969 148.503906 12.832031 148.71875 13.0625 C 148.9375 13.292969 149.046875 13.632812 149.046875 14.082031 C 149.046875 14.5625 149.003906 15.003906 148.925781 15.402344 C 148.84375 15.804688 148.738281 16.207031 148.609375 16.609375 C 148.480469 17.015625 148.339844 17.460938 148.195312 17.953125 C 148.054688 18.441406 147.917969 19.027344 147.789062 19.703125 C 147.65625 20.382812 147.550781 21.191406 147.472656 22.132812 C 147.390625 23.070312 147.351562 24.1875 147.351562 25.480469 C 147.351562 27.09375 147.390625 28.453125 147.472656 29.554688 C 147.550781 30.65625 147.65625 31.566406 147.789062 32.285156 C 147.917969 33.007812 148.054688 33.605469 148.195312 34.078125 C 148.339844 34.550781 148.480469 34.964844 148.609375 35.3125 C 148.738281 35.660156 148.84375 36.007812 148.925781 36.359375 C 149.003906 36.707031 149.046875 37.128906 149.046875 37.621094 C 149.046875 38.070312 148.9375 38.410156 148.71875 38.644531 C 148.503906 38.875 148.234375 39.035156 147.917969 39.125 C 147.601562 39.21875 147.285156 39.269531 146.976562 39.273438 C 146.664062 39.28125 146.410156 39.285156 146.214844 39.285156 L 141.398438 39.285156 C 141.199219 39.285156 140.945312 39.28125 140.632812 39.273438 C 140.320312 39.269531 140.007812 39.21875 139.691406 39.125 C 139.375 39.035156 139.105469 38.875 138.886719 38.644531 C 138.667969 38.410156 138.5625 38.070312 138.5625 37.621094 Z M 138.5625 37.621094 " fill-opacity="1" fill-rule="nonzero"/><path fill="#eeede8" d="M 148.578125 29.957031 C 148.578125 28.773438 148.777344 27.609375 149.183594 26.46875 C 149.589844 25.324219 150.207031 24.289062 151.03125 23.371094 C 151.859375 22.449219 152.902344 21.714844 154.167969 21.171875 C 155.429688 20.621094 156.925781 20.347656 158.652344 20.347656 C 159.613281 20.347656 160.53125 20.46875 161.414062 20.710938 C 162.296875 20.953125 163.082031 21.320312 163.773438 21.8125 C 164.464844 22.304688 165.011719 22.917969 165.414062 23.648438 C 165.816406 24.382812 166.023438 25.242188 166.023438 26.222656 C 166.023438 27.308594 165.855469 28.246094 165.523438 29.042969 C 165.195312 29.835938 164.753906 30.507812 164.203125 31.054688 C 163.648438 31.605469 163.039062 32.058594 162.367188 32.410156 C 161.695312 32.765625 161.015625 33.046875 160.332031 33.257812 C 159.6875 33.457031 159.117188 33.546875 158.625 33.535156 C 158.132812 33.523438 157.742188 33.515625 157.460938 33.515625 C 157.296875 33.515625 157.175781 33.535156 157.097656 33.566406 C 157.015625 33.597656 156.976562 33.671875 156.976562 33.78125 C 156.976562 33.980469 157.085938 34.140625 157.300781 34.265625 C 157.515625 34.390625 157.777344 34.476562 158.082031 34.535156 C 158.386719 34.589844 158.664062 34.617188 158.914062 34.617188 C 159.582031 34.617188 160.148438 34.535156 160.613281 34.367188 C 161.074219 34.199219 161.476562 34.011719 161.824219 33.800781 C 162.171875 33.585938 162.507812 33.394531 162.832031 33.230469 C 163.15625 33.0625 163.511719 32.980469 163.894531 32.980469 C 164.320312 32.980469 164.683594 33.082031 164.984375 33.289062 C 165.292969 33.492188 165.539062 33.753906 165.734375 34.070312 C 165.925781 34.386719 166.066406 34.710938 166.160156 35.050781 C 166.257812 35.382812 166.304688 35.6875 166.304688 35.964844 C 166.304688 36.523438 166.03125 37.082031 165.492188 37.636719 C 164.949219 38.1875 164.117188 38.648438 162.988281 39.015625 C 161.867188 39.378906 160.417969 39.5625 158.652344 39.5625 C 157.011719 39.5625 155.566406 39.292969 154.316406 38.753906 C 153.0625 38.214844 152.015625 37.484375 151.164062 36.5625 C 150.3125 35.640625 149.667969 34.609375 149.230469 33.464844 C 148.796875 32.320312 148.578125 31.152344 148.578125 29.957031 Z M 155.777344 27.976562 C 155.46875 28.773438 155.355469 29.417969 155.445312 29.910156 C 155.53125 30.402344 155.804688 30.648438 156.265625 30.648438 C 156.738281 30.648438 157.214844 30.402344 157.691406 29.910156 C 158.171875 29.417969 158.566406 28.773438 158.875 27.976562 C 159.199219 27.167969 159.316406 26.519531 159.222656 26.027344 C 159.132812 25.535156 158.847656 25.289062 158.375 25.289062 C 157.910156 25.289062 157.445312 25.535156 156.972656 26.027344 C 156.5 26.519531 156.101562 27.167969 155.777344 27.976562 Z M 155.777344 27.976562 " fill-opacity="1" fill-rule="nonzero"/><path fill="#eeede8" d="M 172.792969 39.5625 C 171.636719 39.5625 170.585938 39.316406 169.648438 38.828125 C 168.710938 38.335938 167.964844 37.621094 167.410156 36.683594 C 166.855469 35.742188 166.578125 34.605469 166.578125 33.277344 C 166.578125 32.394531 166.691406 31.546875 166.914062 30.742188 C 167.136719 29.933594 167.417969 29.167969 167.753906 28.445312 C 168.089844 27.722656 168.421875 27.050781 168.75 26.429688 C 169.082031 25.808594 169.359375 25.242188 169.582031 24.722656 C 169.804688 24.207031 169.917969 23.742188 169.917969 23.335938 C 169.917969 23.007812 169.871094 22.792969 169.785156 22.679688 C 169.699219 22.566406 169.570312 22.511719 169.398438 22.511719 C 169.234375 22.511719 169.035156 22.542969 168.796875 22.605469 C 168.5625 22.667969 168.308594 22.699219 168.035156 22.699219 C 167.511719 22.699219 167.140625 22.589844 166.921875 22.375 C 166.703125 22.152344 166.597656 21.851562 166.597656 21.46875 C 166.597656 20.996094 166.894531 20.429688 167.492188 19.769531 C 168.089844 19.109375 168.859375 18.34375 169.804688 17.476562 C 170.363281 16.953125 170.902344 16.4375 171.421875 15.929688 C 171.9375 15.417969 172.398438 14.996094 172.800781 14.660156 C 173.207031 14.324219 173.511719 14.15625 173.722656 14.15625 C 173.972656 14.15625 174.152344 14.238281 174.273438 14.40625 C 174.394531 14.574219 174.472656 14.78125 174.519531 15.03125 C 174.5625 15.28125 174.582031 15.515625 174.582031 15.738281 L 174.582031 20.628906 L 175.347656 20.628906 C 175.648438 20.628906 175.886719 20.722656 176.074219 20.910156 C 176.261719 21.097656 176.355469 21.335938 176.355469 21.636719 L 176.355469 21.691406 C 176.355469 21.988281 176.261719 22.230469 176.074219 22.417969 C 175.886719 22.605469 175.648438 22.699219 175.347656 22.699219 L 174.582031 22.699219 L 174.582031 29.957031 C 174.582031 31.101562 174.667969 32.035156 174.84375 32.753906 C 175.015625 33.476562 175.234375 34.054688 175.492188 34.484375 C 175.753906 34.910156 176.019531 35.257812 176.277344 35.519531 C 176.539062 35.777344 176.757812 36.011719 176.933594 36.214844 C 177.105469 36.417969 177.191406 36.671875 177.191406 36.972656 C 177.191406 37.378906 177.058594 37.746094 176.792969 38.070312 C 176.527344 38.394531 176.175781 38.667969 175.738281 38.894531 C 175.304688 39.117188 174.824219 39.285156 174.308594 39.394531 C 173.796875 39.507812 173.289062 39.5625 172.792969 39.5625 Z M 172.792969 39.5625 " fill-opacity="1" fill-rule="nonzero"/><g clip-path="url(#def9467b12)"><path fill="#eeede8" d="M 179.394531 29.957031 C 179.394531 29.136719 179.332031 28.441406 179.207031 27.867188 C 179.085938 27.292969 178.929688 26.804688 178.75 26.394531 C 178.570312 25.984375 178.390625 25.617188 178.210938 25.292969 C 178.03125 24.96875 177.878906 24.648438 177.75 24.332031 C 177.625 24.015625 177.566406 23.65625 177.566406 23.261719 C 177.566406 22.824219 177.738281 22.484375 178.085938 22.242188 C 178.433594 22 178.878906 21.800781 179.414062 21.644531 C 179.949219 21.488281 180.496094 21.335938 181.058594 21.1875 C 181.28125 21.125 181.5625 21.046875 181.902344 20.953125 C 182.246094 20.859375 182.59375 20.765625 182.945312 20.675781 C 183.300781 20.582031 183.621094 20.503906 183.898438 20.441406 C 184.179688 20.378906 184.382812 20.347656 184.507812 20.347656 C 184.816406 20.347656 185.121094 20.460938 185.425781 20.683594 C 185.734375 20.90625 185.984375 21.292969 186.183594 21.847656 C 186.382812 22.402344 186.484375 23.175781 186.484375 24.171875 C 186.484375 24.828125 186.488281 25.519531 186.496094 26.242188 C 186.5 26.964844 186.503906 27.648438 186.503906 28.292969 C 186.503906 28.941406 186.503906 29.496094 186.503906 29.957031 C 186.503906 30.753906 186.585938 31.523438 186.753906 32.269531 C 186.921875 33.015625 187.117188 33.71875 187.347656 34.375 C 187.582031 35.035156 187.78125 35.640625 187.949219 36.1875 C 188.113281 36.734375 188.199219 37.214844 188.199219 37.621094 C 188.199219 38.070312 188.105469 38.410156 187.917969 38.644531 C 187.734375 38.875 187.5 39.035156 187.21875 39.125 C 186.941406 39.21875 186.660156 39.269531 186.378906 39.273438 C 186.097656 39.28125 185.859375 39.285156 185.664062 39.285156 L 180.253906 39.285156 C 180.050781 39.285156 179.8125 39.28125 179.535156 39.273438 C 179.253906 39.269531 178.972656 39.21875 178.695312 39.125 C 178.414062 39.035156 178.179688 38.875 177.992188 38.644531 C 177.808594 38.410156 177.714844 38.070312 177.714844 37.621094 C 177.714844 37.128906 177.796875 36.609375 177.964844 36.066406 C 178.132812 35.523438 178.332031 34.941406 178.554688 34.320312 C 178.777344 33.699219 178.972656 33.03125 179.140625 32.316406 C 179.308594 31.597656 179.394531 30.8125 179.394531 29.957031 Z M 182.898438 19.230469 C 182.6875 19.230469 182.386719 19.148438 181.996094 18.988281 C 181.605469 18.824219 181.1875 18.601562 180.746094 18.316406 C 180.304688 18.027344 179.882812 17.695312 179.476562 17.316406 C 179.070312 16.9375 178.742188 16.519531 178.488281 16.066406 C 178.234375 15.613281 178.109375 15.136719 178.109375 14.636719 C 178.109375 14.140625 178.214844 13.703125 178.433594 13.332031 C 178.648438 12.960938 178.929688 12.667969 179.277344 12.457031 C 179.628906 12.246094 180.007812 12.140625 180.421875 12.140625 C 180.992188 12.140625 181.480469 12.300781 181.882812 12.628906 C 182.289062 12.949219 182.628906 13.277344 182.898438 13.613281 C 183.1875 13.277344 183.53125 12.949219 183.9375 12.628906 C 184.339844 12.300781 184.828125 12.140625 185.402344 12.140625 C 185.8125 12.140625 186.191406 12.246094 186.546875 12.457031 C 186.902344 12.667969 187.183594 12.960938 187.394531 13.332031 C 187.609375 13.703125 187.714844 14.140625 187.714844 14.636719 C 187.714844 15.136719 187.585938 15.613281 187.328125 16.066406 C 187.074219 16.519531 186.746094 16.9375 186.339844 17.316406 C 185.9375 17.695312 185.511719 18.027344 185.0625 18.316406 C 184.617188 18.601562 184.203125 18.824219 183.816406 18.988281 C 183.429688 19.148438 183.125 19.230469 182.898438 19.230469 Z M 182.898438 19.230469 " fill-opacity="1" fill-rule="nonzero"/></g><path fill="#eeede8" d="M 187.730469 29.957031 C 187.730469 28.636719 187.921875 27.460938 188.300781 26.421875 C 188.683594 25.382812 189.203125 24.480469 189.867188 23.714844 C 190.53125 22.953125 191.296875 22.320312 192.167969 21.820312 C 193.042969 21.324219 193.972656 20.953125 194.960938 20.710938 C 195.949219 20.46875 196.953125 20.347656 197.972656 20.347656 C 199.542969 20.347656 200.921875 20.585938 202.113281 21.058594 C 203.308594 21.53125 204.242188 22.222656 204.914062 23.140625 C 205.585938 24.054688 205.921875 25.164062 205.921875 26.46875 C 205.921875 26.988281 205.839844 27.503906 205.679688 28.015625 C 205.519531 28.527344 205.28125 28.992188 204.96875 29.417969 C 204.660156 29.839844 204.273438 30.175781 203.804688 30.425781 C 203.335938 30.671875 202.796875 30.796875 202.1875 30.796875 C 201.28125 30.796875 200.585938 30.625 200.101562 30.277344 C 199.617188 29.925781 199.285156 29.476562 199.101562 28.929688 C 198.921875 28.382812 198.832031 27.816406 198.832031 27.230469 C 198.832031 26.910156 198.816406 26.601562 198.785156 26.3125 C 198.753906 26.015625 198.675781 25.773438 198.542969 25.582031 C 198.414062 25.386719 198.191406 25.289062 197.878906 25.289062 C 197.433594 25.289062 197.023438 25.449219 196.648438 25.765625 C 196.277344 26.082031 195.957031 26.488281 195.6875 26.980469 C 195.421875 27.472656 195.210938 27.988281 195.0625 28.53125 C 194.914062 29.070312 194.839844 29.5625 194.839844 30.011719 C 194.839844 30.945312 194.953125 31.707031 195.183594 32.304688 C 195.414062 32.902344 195.710938 33.371094 196.070312 33.707031 C 196.429688 34.042969 196.828125 34.277344 197.253906 34.414062 C 197.683594 34.550781 198.089844 34.617188 198.480469 34.617188 C 199.039062 34.617188 199.519531 34.535156 199.921875 34.367188 C 200.328125 34.199219 200.691406 34.011719 201.015625 33.800781 C 201.339844 33.585938 201.664062 33.394531 201.984375 33.230469 C 202.308594 33.0625 202.664062 32.980469 203.046875 32.980469 C 203.472656 32.980469 203.835938 33.082031 204.140625 33.289062 C 204.445312 33.492188 204.695312 33.753906 204.886719 34.070312 C 205.078125 34.386719 205.222656 34.710938 205.3125 35.050781 C 205.410156 35.382812 205.457031 35.6875 205.457031 35.964844 C 205.457031 36.523438 205.1875 37.082031 204.644531 37.636719 C 204.101562 38.1875 203.269531 38.648438 202.144531 39.015625 C 201.019531 39.378906 199.574219 39.5625 197.804688 39.5625 C 196.164062 39.5625 194.71875 39.292969 193.46875 38.753906 C 192.21875 38.214844 191.167969 37.484375 190.316406 36.5625 C 189.464844 35.640625 188.820312 34.609375 188.382812 33.464844 C 187.949219 32.320312 187.730469 31.152344 187.730469 29.957031 Z M 187.730469 29.957031 " fill-opacity="1" fill-rule="nonzero"/><g clip-path="url(#e6258131bb)"><path fill="#eeede8" d="M 217.246094 34.828125 C 217.246094 34.488281 217.089844 34.214844 216.785156 34.003906 C 216.480469 33.792969 216.074219 33.613281 215.5625 33.457031 C 215.050781 33.300781 214.476562 33.144531 213.835938 32.996094 C 213.199219 32.847656 212.539062 32.671875 211.863281 32.46875 C 211.183594 32.261719 210.527344 32.003906 209.882812 31.691406 C 209.242188 31.378906 208.667969 30.984375 208.15625 30.507812 C 207.648438 30.027344 207.238281 29.441406 206.929688 28.742188 C 206.628906 28.046875 206.476562 27.207031 206.476562 26.222656 C 206.476562 25.230469 206.695312 24.367188 207.132812 23.632812 C 207.566406 22.898438 208.160156 22.289062 208.914062 21.800781 C 209.667969 21.316406 210.523438 20.953125 211.488281 20.710938 C 212.453125 20.46875 213.457031 20.347656 214.5 20.347656 C 215.109375 20.347656 215.78125 20.382812 216.515625 20.449219 C 217.25 20.519531 217.984375 20.636719 218.714844 20.804688 C 219.449219 20.972656 220.125 21.207031 220.742188 21.503906 C 221.355469 21.800781 221.851562 22.179688 222.222656 22.632812 C 222.597656 23.089844 222.785156 23.640625 222.785156 24.285156 C 222.785156 25.082031 222.519531 25.683594 222 26.089844 C 221.480469 26.492188 220.820312 26.691406 220.027344 26.691406 C 219.339844 26.691406 218.734375 26.613281 218.207031 26.460938 C 217.675781 26.300781 217.203125 26.109375 216.785156 25.878906 C 216.367188 25.648438 215.976562 25.421875 215.609375 25.191406 C 215.246094 24.960938 214.886719 24.765625 214.539062 24.613281 C 214.191406 24.457031 213.816406 24.378906 213.417969 24.378906 C 213.207031 24.378906 212.988281 24.421875 212.753906 24.507812 C 212.523438 24.597656 212.410156 24.789062 212.410156 25.085938 C 212.410156 25.359375 212.566406 25.589844 212.875 25.777344 C 213.1875 25.960938 213.605469 26.132812 214.128906 26.28125 C 214.652344 26.429688 215.234375 26.582031 215.878906 26.738281 C 216.527344 26.894531 217.199219 27.078125 217.894531 27.289062 C 218.589844 27.5 219.261719 27.757812 219.910156 28.066406 C 220.554688 28.371094 221.140625 28.746094 221.664062 29.195312 C 222.1875 29.640625 222.605469 30.175781 222.914062 30.804688 C 223.226562 31.433594 223.382812 32.183594 223.382812 33.054688 C 223.382812 34.25 223.144531 35.257812 222.671875 36.085938 C 222.199219 36.910156 221.554688 37.578125 220.742188 38.089844 C 219.925781 38.601562 219.003906 38.976562 217.976562 39.210938 C 216.953125 39.445312 215.878906 39.5625 214.761719 39.5625 C 213.714844 39.5625 212.703125 39.5 211.71875 39.378906 C 210.738281 39.253906 209.855469 39.042969 209.070312 38.746094 C 208.289062 38.445312 207.667969 38.039062 207.207031 37.523438 C 206.742188 37.007812 206.515625 36.347656 206.515625 35.550781 C 206.515625 34.707031 206.765625 34.039062 207.269531 33.550781 C 207.773438 33.058594 208.4375 32.8125 209.257812 32.8125 C 209.84375 32.8125 210.371094 32.914062 210.839844 33.117188 C 211.316406 33.320312 211.761719 33.570312 212.179688 33.867188 C 212.597656 34.15625 213.007812 34.453125 213.410156 34.753906 C 213.8125 35.050781 214.234375 35.300781 214.667969 35.507812 C 215.105469 35.714844 215.582031 35.816406 216.105469 35.816406 C 216.453125 35.804688 216.730469 35.714844 216.933594 35.546875 C 217.140625 35.375 217.246094 35.136719 217.246094 34.828125 Z M 217.246094 34.828125 " fill-opacity="1" fill-rule="nonzero"/></g></svg>