<svg xmlns="http://www.w3.org/2000/svg" xmlns:xlink="http://www.w3.org/1999/xlink" width="300" zoomAndPan="magnify" viewBox="0 0 224.87999 74.999997" height="100" preserveAspectRatio="xMidYMid meet" version="1.0"><path fill="#eeede8" d="M 5.296875 27.902344 L 5.296875 19.054688 C 5.296875 18.164062 5.570312 17.445312 6.113281 16.902344 C 6.65625 16.359375 7.375 16.085938 8.269531 16.085938 L 34.515625 16.085938 C 35.40625 16.085938 36.125 16.359375 36.667969 16.902344 C 37.210938 17.445312 37.484375 18.164062 37.484375 19.054688 L 37.484375 27.902344 C 37.484375 28.347656 37.328125 28.707031 37.015625 28.980469 C 36.707031 29.25 36.335938 29.386719 35.910156 29.386719 C 35.308594 29.386719 34.753906 29.273438 34.238281 29.039062 C 33.722656 28.804688 33.210938 28.507812 32.707031 28.148438 C 32.203125 27.792969 31.683594 27.4375 31.148438 27.085938 C 30.617188 26.738281 30.027344 26.445312 29.378906 26.214844 C 28.730469 25.980469 27.996094 25.863281 27.183594 25.863281 L 26.746094 25.863281 L 26.746094 37.039062 C 26.746094 39.113281 26.808594 40.90625 26.933594 42.40625 C 27.058594 43.910156 27.222656 45.203125 27.425781 46.289062 C 27.632812 47.378906 27.84375 48.320312 28.066406 49.113281 C 28.292969 49.910156 28.503906 50.625 28.710938 51.265625 C 28.910156 51.90625 29.074219 52.546875 29.199219 53.1875 C 29.328125 53.828125 29.394531 54.546875 29.394531 55.339844 C 29.394531 56.0625 29.222656 56.605469 28.882812 56.972656 C 28.546875 57.339844 28.128906 57.597656 27.632812 57.746094 C 27.136719 57.890625 26.648438 57.964844 26.160156 57.972656 C 25.675781 57.984375 25.28125 57.988281 24.96875 57.988281 L 17.460938 57.988281 C 17.152344 57.988281 16.753906 57.984375 16.265625 57.972656 C 15.78125 57.964844 15.292969 57.890625 14.800781 57.746094 C 14.304688 57.597656 13.886719 57.339844 13.546875 56.972656 C 13.207031 56.605469 13.039062 56.0625 13.039062 55.339844 C 13.039062 54.546875 13.101562 53.828125 13.226562 53.1875 C 13.351562 52.546875 13.519531 51.90625 13.722656 51.265625 C 13.929688 50.625 14.140625 49.910156 14.363281 49.113281 C 14.585938 48.320312 14.796875 47.378906 15 46.289062 C 15.207031 45.203125 15.371094 43.910156 15.496094 42.40625 C 15.625 40.90625 15.6875 39.113281 15.6875 37.039062 L 15.6875 25.863281 L 15.601562 25.863281 C 14.785156 25.863281 14.050781 25.980469 13.402344 26.214844 C 12.753906 26.445312 12.160156 26.738281 11.628906 27.085938 C 11.09375 27.4375 10.574219 27.792969 10.066406 28.148438 C 9.5625 28.507812 9.054688 28.804688 8.539062 29.039062 C 8.027344 29.273438 7.472656 29.386719 6.871094 29.386719 C 6.445312 29.386719 6.074219 29.25 5.761719 28.980469 C 5.453125 28.707031 5.296875 28.347656 5.296875 27.902344 Z M 5.296875 27.902344 " fill-opacity="1" fill-rule="nonzero"/><path fill="#eeede8" d="M 38.355469 48.851562 C 38.355469 47.804688 38.414062 46.910156 38.542969 46.171875 C 38.667969 45.4375 38.808594 44.757812 38.964844 44.140625 C 39.117188 43.519531 39.257812 42.882812 39.382812 42.234375 C 39.511719 41.582031 39.578125 40.820312 39.578125 39.945312 C 39.578125 39.09375 39.515625 38.328125 39.398438 37.652344 C 39.28125 36.96875 39.140625 36.324219 38.976562 35.714844 C 38.8125 35.105469 38.671875 34.46875 38.554688 33.808594 C 38.4375 33.148438 38.382812 32.410156 38.382812 31.597656 C 38.382812 30.898438 38.566406 30.351562 38.933594 29.953125 C 39.300781 29.554688 39.71875 29.277344 40.1875 29.125 C 40.652344 28.96875 41.019531 28.890625 41.292969 28.890625 L 47.171875 28.890625 C 47.984375 28.890625 48.652344 29.136719 49.175781 29.636719 C 49.699219 30.128906 50.109375 30.757812 50.398438 31.523438 C 50.691406 32.289062 50.890625 33.105469 51 33.96875 C 51.105469 34.832031 51.15625 35.628906 51.15625 36.367188 C 51.15625 37.84375 51.050781 39.160156 50.835938 40.324219 C 50.621094 41.492188 50.375 42.535156 50.09375 43.457031 C 49.8125 44.378906 49.566406 45.207031 49.355469 45.945312 C 49.140625 46.679688 49.035156 47.371094 49.035156 48.007812 C 49.035156 48.6875 49.160156 49.3125 49.410156 49.882812 C 49.664062 50.453125 50.070312 50.742188 50.632812 50.742188 C 51.292969 50.742188 51.855469 50.460938 52.320312 49.898438 C 52.785156 49.335938 53.164062 48.597656 53.453125 47.6875 C 53.746094 46.773438 53.960938 45.796875 54.09375 44.75 C 54.234375 43.703125 54.300781 42.683594 54.300781 41.695312 C 54.300781 40.394531 54.253906 39.253906 54.15625 38.273438 C 54.058594 37.292969 53.945312 36.421875 53.820312 35.65625 C 53.695312 34.890625 53.582031 34.171875 53.488281 33.503906 C 53.390625 32.832031 53.339844 32.160156 53.339844 31.480469 C 53.339844 30.78125 53.476562 30.253906 53.75 29.890625 C 54.019531 29.535156 54.359375 29.28125 54.765625 29.136719 C 55.175781 28.992188 55.589844 28.914062 56.015625 28.902344 C 56.445312 28.894531 56.8125 28.890625 57.121094 28.890625 L 63.410156 28.890625 C 63.71875 28.890625 64.113281 28.894531 64.597656 28.902344 C 65.085938 28.914062 65.574219 28.992188 66.070312 29.136719 C 66.5625 29.28125 66.980469 29.535156 67.320312 29.890625 C 67.660156 30.253906 67.832031 30.78125 67.832031 31.480469 C 67.832031 32.160156 67.699219 32.921875 67.4375 33.765625 C 67.175781 34.609375 66.875 35.5625 66.535156 36.621094 C 66.195312 37.675781 65.898438 38.859375 65.632812 40.167969 C 65.371094 41.476562 65.242188 42.945312 65.242188 44.574219 C 65.242188 45.875 65.371094 47.042969 65.632812 48.078125 C 65.898438 49.117188 66.207031 50.0625 66.566406 50.917969 C 66.925781 51.773438 67.234375 52.5625 67.496094 53.289062 C 67.757812 54.019531 67.886719 54.722656 67.886719 55.398438 C 67.886719 56.097656 67.742188 56.628906 67.453125 56.984375 C 67.160156 57.34375 66.796875 57.597656 66.359375 57.746094 C 65.921875 57.890625 65.484375 57.964844 65.050781 57.972656 C 64.613281 57.984375 64.242188 57.988281 63.933594 57.988281 L 58.578125 57.988281 C 57.511719 57.988281 56.660156 57.8125 56.03125 57.464844 C 55.398438 57.113281 54.921875 56.542969 54.59375 55.75 C 54.359375 56.195312 53.886719 56.621094 53.175781 57.027344 C 52.472656 57.433594 51.671875 57.769531 50.777344 58.03125 C 49.886719 58.292969 49.046875 58.425781 48.25 58.425781 C 45.785156 58.425781 43.828125 58.011719 42.382812 57.1875 C 40.941406 56.363281 39.90625 55.234375 39.285156 53.800781 C 38.664062 52.363281 38.355469 50.714844 38.355469 48.851562 Z M 38.355469 48.851562 " fill-opacity="1" fill-rule="nonzero"/><path fill="#eeede8" d="M 68.46875 32.992188 C 68.46875 32.3125 68.742188 31.785156 69.285156 31.40625 C 69.828125 31.027344 70.519531 30.71875 71.351562 30.476562 C 72.183594 30.234375 73.039062 29.996094 73.914062 29.761719 C 74.261719 29.664062 74.703125 29.542969 75.234375 29.402344 C 75.769531 29.253906 76.3125 29.109375 76.867188 28.964844 C 77.417969 28.820312 77.910156 28.695312 78.347656 28.597656 C 78.78125 28.503906 79.101562 28.453125 79.296875 28.453125 C 79.839844 28.453125 80.359375 28.664062 80.851562 29.082031 C 81.347656 29.496094 81.75 30.265625 82.0625 31.390625 C 82.097656 31.546875 82.160156 31.675781 82.25 31.769531 C 82.335938 31.867188 82.476562 31.917969 82.671875 31.917969 C 82.84375 31.917969 83.164062 31.742188 83.632812 31.390625 C 84.097656 31.042969 84.695312 30.640625 85.433594 30.183594 C 86.171875 29.726562 87.042969 29.324219 88.054688 28.980469 C 89.0625 28.628906 90.207031 28.453125 91.488281 28.453125 C 93.25 28.453125 94.679688 28.847656 95.765625 29.636719 C 96.851562 30.417969 97.652344 31.5 98.164062 32.875 C 98.679688 34.253906 98.9375 35.835938 98.9375 37.617188 L 98.9375 43.441406 C 98.9375 44.777344 99.066406 46.011719 99.332031 47.136719 C 99.59375 48.261719 99.902344 49.304688 100.261719 50.261719 C 100.621094 51.222656 100.929688 52.125 101.191406 52.972656 C 101.453125 53.8125 101.582031 54.625 101.582031 55.398438 C 101.582031 56.097656 101.414062 56.628906 101.074219 56.984375 C 100.734375 57.34375 100.320312 57.597656 99.824219 57.746094 C 99.328125 57.890625 98.839844 57.964844 98.355469 57.972656 C 97.871094 57.984375 97.472656 57.988281 97.160156 57.988281 L 91.722656 57.988281 C 91.46875 57.988281 91.125 57.988281 90.6875 57.988281 C 90.25 57.988281 89.777344 57.957031 89.273438 57.890625 C 88.769531 57.820312 88.285156 57.699219 87.820312 57.523438 C 87.351562 57.351562 86.976562 57.09375 86.6875 56.75 C 86.394531 56.410156 86.25 55.960938 86.25 55.398438 C 86.25 54.097656 86.390625 52.796875 86.671875 51.484375 C 86.953125 50.175781 87.234375 48.851562 87.515625 47.511719 C 87.796875 46.171875 87.917969 44.816406 87.878906 43.441406 C 87.863281 42.839844 87.8125 42.203125 87.734375 41.535156 C 87.65625 40.863281 87.519531 40.230469 87.328125 39.640625 C 87.132812 39.050781 86.851562 38.566406 86.484375 38.191406 C 86.113281 37.808594 85.636719 37.617188 85.054688 37.617188 C 84.4375 37.617188 83.941406 37.808594 83.574219 38.191406 C 83.207031 38.566406 82.933594 39.050781 82.757812 39.640625 C 82.582031 40.230469 82.472656 40.867188 82.421875 41.550781 C 82.375 42.226562 82.351562 42.859375 82.351562 43.441406 C 82.351562 44.566406 82.488281 45.671875 82.757812 46.757812 C 83.03125 47.84375 83.339844 48.890625 83.6875 49.898438 C 84.035156 50.90625 84.347656 51.871094 84.621094 52.792969 C 84.890625 53.714844 85.027344 54.582031 85.027344 55.398438 C 85.027344 55.960938 84.882812 56.410156 84.589844 56.75 C 84.300781 57.09375 83.921875 57.351562 83.457031 57.523438 C 82.992188 57.699219 82.507812 57.820312 82 57.890625 C 81.496094 57.957031 81.027344 57.988281 80.589844 57.988281 C 80.152344 57.988281 79.808594 57.988281 79.558594 57.988281 L 73.097656 57.988281 C 72.785156 57.988281 72.386719 57.984375 71.90625 57.972656 C 71.417969 57.964844 70.929688 57.890625 70.433594 57.746094 C 69.9375 57.597656 69.523438 57.34375 69.183594 56.984375 C 68.84375 56.628906 68.675781 56.097656 68.675781 55.398438 C 68.675781 54.625 68.804688 53.8125 69.066406 52.972656 C 69.328125 52.125 69.636719 51.222656 69.996094 50.261719 C 70.355469 49.304688 70.667969 48.261719 70.929688 47.136719 C 71.191406 46.011719 71.324219 44.777344 71.324219 43.441406 C 71.324219 42.160156 71.226562 41.074219 71.03125 40.179688 C 70.839844 39.289062 70.601562 38.519531 70.316406 37.878906 C 70.035156 37.242188 69.753906 36.667969 69.472656 36.164062 C 69.191406 35.660156 68.953125 35.160156 68.761719 34.667969 C 68.566406 34.171875 68.46875 33.617188 68.46875 32.992188 Z M 68.46875 32.992188 " fill-opacity="1" fill-rule="nonzero"/><path fill="#eeede8" d="M 100.855469 43.441406 C 100.855469 41.425781 101.082031 39.648438 101.539062 38.113281 C 101.996094 36.582031 102.609375 35.261719 103.386719 34.15625 C 104.164062 33.050781 105.027344 32.132812 105.976562 31.40625 C 106.929688 30.679688 107.910156 30.097656 108.917969 29.664062 C 109.925781 29.226562 110.898438 28.914062 111.828125 28.730469 C 112.757812 28.546875 113.574219 28.453125 114.273438 28.453125 C 115.53125 28.433594 116.535156 28.464844 117.28125 28.542969 C 118.03125 28.617188 118.652344 28.695312 119.144531 28.773438 C 119.640625 28.851562 120.128906 28.890625 120.617188 28.890625 C 121.625 28.890625 122.4375 28.851562 123.058594 28.773438 C 123.679688 28.695312 124.21875 28.621094 124.675781 28.558594 C 125.128906 28.488281 125.582031 28.453125 126.027344 28.453125 C 126.335938 28.453125 126.699219 28.492188 127.113281 28.570312 C 127.53125 28.648438 127.945312 28.804688 128.351562 29.039062 C 128.761719 29.273438 129.101562 29.601562 129.375 30.027344 C 129.644531 30.453125 129.78125 31.015625 129.78125 31.710938 C 129.78125 32.390625 129.679688 33.101562 129.476562 33.835938 C 129.273438 34.574219 129.046875 35.390625 128.792969 36.28125 C 128.539062 37.171875 128.3125 38.203125 128.109375 39.367188 C 127.90625 40.53125 127.804688 41.890625 127.804688 43.441406 C 127.804688 44.777344 127.875 45.917969 128.019531 46.863281 C 128.164062 47.800781 128.347656 48.617188 128.570312 49.308594 C 128.796875 49.996094 129.019531 50.59375 129.242188 51.109375 C 129.46875 51.625 129.652344 52.113281 129.792969 52.578125 C 129.941406 53.042969 130.015625 53.539062 130.015625 54.0625 C 130.015625 54.914062 129.683594 55.671875 129.023438 56.328125 C 128.363281 56.988281 127.480469 57.503906 126.375 57.871094 C 125.269531 58.238281 124.027344 58.425781 122.648438 58.425781 C 122.050781 58.425781 121.585938 58.335938 121.253906 58.160156 C 120.925781 57.988281 120.660156 57.789062 120.453125 57.566406 C 120.25 57.34375 120.03125 57.148438 119.796875 56.972656 C 119.566406 56.796875 119.253906 56.710938 118.871094 56.710938 C 118.441406 56.710938 118.0625 56.796875 117.730469 56.972656 C 117.402344 57.148438 117.03125 57.34375 116.609375 57.566406 C 116.195312 57.789062 115.675781 57.988281 115.054688 58.160156 C 114.433594 58.335938 113.621094 58.425781 112.613281 58.425781 C 111.003906 58.425781 109.484375 58.066406 108.054688 57.351562 C 106.632812 56.632812 105.382812 55.617188 104.304688 54.296875 C 103.226562 52.976562 102.386719 51.394531 101.773438 49.550781 C 101.160156 47.707031 100.855469 45.671875 100.855469 43.441406 Z M 114.503906 36.136719 C 113.726562 36.136719 113.101562 36.808594 112.625 38.148438 C 112.148438 39.484375 111.914062 41.25 111.914062 43.441406 C 111.914062 45.613281 112.148438 47.367188 112.625 48.707031 C 113.101562 50.046875 113.726562 50.710938 114.503906 50.710938 C 115.28125 50.710938 115.90625 50.046875 116.382812 48.707031 C 116.855469 47.367188 117.09375 45.613281 117.09375 43.441406 C 117.09375 41.25 116.855469 39.484375 116.382812 38.148438 C 115.90625 36.808594 115.28125 36.136719 114.503906 36.136719 Z M 114.503906 36.136719 " fill-opacity="1" fill-rule="nonzero"/><path fill="#eeede8" d="M 130.855469 55.339844 C 130.855469 54.546875 130.917969 53.828125 131.042969 53.1875 C 131.171875 52.546875 131.335938 51.90625 131.539062 51.265625 C 131.742188 50.625 131.953125 49.910156 132.175781 49.113281 C 132.402344 48.320312 132.613281 47.378906 132.820312 46.289062 C 133.023438 45.203125 133.191406 43.910156 133.316406 42.40625 C 133.441406 40.90625 133.503906 39.113281 133.503906 37.039062 C 133.503906 34.964844 133.441406 33.175781 133.316406 31.671875 C 133.191406 30.167969 133.023438 28.871094 132.820312 27.785156 C 132.613281 26.699219 132.402344 25.757812 132.175781 24.964844 C 131.953125 24.167969 131.742188 23.449219 131.539062 22.808594 C 131.335938 22.167969 131.171875 21.523438 131.042969 20.875 C 130.917969 20.226562 130.855469 19.511719 130.855469 18.734375 C 130.855469 18.019531 131.027344 17.476562 131.367188 17.105469 C 131.707031 16.738281 132.125 16.480469 132.617188 16.335938 C 133.109375 16.1875 133.597656 16.109375 134.082031 16.101562 C 134.570312 16.089844 134.96875 16.085938 135.277344 16.085938 L 141.039062 16.085938 C 141.425781 16.085938 141.84375 16.125 142.292969 16.203125 C 142.738281 16.28125 143.152344 16.425781 143.527344 16.640625 C 143.90625 16.851562 144.191406 17.179688 144.386719 17.628906 L 144.386719 17.597656 L 150.175781 30.257812 C 150.449219 30.820312 150.738281 31.101562 151.054688 31.101562 C 151.378906 31.101562 151.671875 30.828125 151.925781 30.285156 C 152.503906 29.066406 153.085938 27.757812 153.667969 26.359375 C 154.25 24.960938 154.859375 23.539062 155.488281 22.097656 C 156.121094 20.652344 156.792969 19.25 157.507812 17.890625 C 157.664062 17.367188 157.9375 16.980469 158.324219 16.726562 C 158.714844 16.476562 159.144531 16.304688 159.621094 16.21875 C 160.097656 16.128906 160.535156 16.085938 160.941406 16.085938 L 169.324219 16.085938 C 169.636719 16.085938 170.035156 16.089844 170.519531 16.101562 C 171.003906 16.109375 171.492188 16.1875 171.984375 16.335938 C 172.480469 16.480469 172.898438 16.738281 173.234375 17.105469 C 173.574219 17.476562 173.746094 18.019531 173.746094 18.734375 C 173.746094 19.511719 173.683594 20.226562 173.554688 20.875 C 173.429688 21.523438 173.265625 22.167969 173.0625 22.808594 C 172.859375 23.449219 172.644531 24.167969 172.421875 24.964844 C 172.199219 25.757812 171.988281 26.699219 171.785156 27.785156 C 171.582031 28.871094 171.414062 30.167969 171.289062 31.671875 C 171.160156 33.175781 171.101562 34.964844 171.101562 37.039062 C 171.101562 39.113281 171.160156 40.90625 171.289062 42.40625 C 171.414062 43.910156 171.582031 45.203125 171.785156 46.289062 C 171.988281 47.378906 172.199219 48.320312 172.421875 49.113281 C 172.644531 49.910156 172.859375 50.625 173.0625 51.265625 C 173.265625 51.90625 173.429688 52.546875 173.554688 53.1875 C 173.683594 53.828125 173.746094 54.546875 173.746094 55.339844 C 173.746094 56.0625 173.574219 56.605469 173.234375 56.972656 C 172.898438 57.339844 172.480469 57.597656 171.984375 57.746094 C 171.492188 57.890625 171.003906 57.964844 170.519531 57.972656 C 170.035156 57.984375 169.636719 57.988281 169.324219 57.988281 L 161.820312 57.988281 C 161.332031 57.988281 160.832031 57.96875 160.316406 57.933594 C 159.800781 57.890625 159.324219 57.796875 158.875 57.640625 C 158.433594 57.484375 158.074219 57.222656 157.804688 56.855469 C 157.53125 56.488281 157.394531 55.980469 157.394531 55.339844 C 157.394531 54.546875 157.445312 53.828125 157.542969 53.1875 C 157.636719 52.546875 157.761719 51.90625 157.917969 51.265625 C 158.070312 50.625 158.234375 49.910156 158.398438 49.113281 C 158.5625 48.320312 158.722656 47.378906 158.875 46.289062 C 159.03125 45.203125 159.160156 43.910156 159.257812 42.40625 C 159.351562 40.90625 159.402344 39.113281 159.402344 37.039062 L 151.605469 50.828125 C 151.484375 51.121094 151.296875 51.34375 151.035156 51.5 C 150.773438 51.65625 150.507812 51.734375 150.238281 51.734375 C 149.652344 51.734375 149.214844 51.441406 148.925781 50.859375 L 141.945312 37.617188 C 141.964844 39.597656 142.035156 41.3125 142.160156 42.757812 C 142.289062 44.199219 142.453125 45.445312 142.65625 46.496094 C 142.859375 47.542969 143.070312 48.453125 143.292969 49.230469 C 143.519531 50.007812 143.726562 50.710938 143.921875 51.339844 C 144.117188 51.972656 144.273438 52.601562 144.398438 53.234375 C 144.527344 53.859375 144.59375 54.5625 144.59375 55.339844 C 144.59375 55.980469 144.457031 56.488281 144.183594 56.855469 C 143.914062 57.222656 143.554688 57.484375 143.105469 57.640625 C 142.660156 57.796875 142.179688 57.890625 141.664062 57.933594 C 141.152344 57.96875 140.652344 57.988281 140.167969 57.988281 L 135.277344 57.988281 C 134.96875 57.988281 134.570312 57.984375 134.082031 57.972656 C 133.597656 57.964844 133.109375 57.890625 132.617188 57.746094 C 132.125 57.597656 131.707031 57.339844 131.367188 56.972656 C 131.027344 56.605469 130.855469 56.0625 130.855469 55.339844 Z M 130.855469 55.339844 " fill-opacity="1" fill-rule="nonzero"/><path fill="#eeede8" d="M 173.601562 43.441406 C 173.601562 41.425781 173.828125 39.648438 174.285156 38.113281 C 174.738281 36.582031 175.355469 35.261719 176.128906 34.15625 C 176.90625 33.050781 177.769531 32.132812 178.722656 31.40625 C 179.671875 30.679688 180.652344 30.097656 181.664062 29.664062 C 182.671875 29.226562 183.640625 28.914062 184.574219 28.730469 C 185.503906 28.546875 186.316406 28.453125 187.019531 28.453125 C 188.277344 28.433594 189.277344 28.464844 190.027344 28.542969 C 190.777344 28.617188 191.394531 28.695312 191.890625 28.773438 C 192.382812 28.851562 192.875 28.890625 193.363281 28.890625 C 194.371094 28.890625 195.183594 28.851562 195.800781 28.773438 C 196.421875 28.695312 196.960938 28.621094 197.417969 28.558594 C 197.875 28.488281 198.324219 28.453125 198.773438 28.453125 C 199.082031 28.453125 199.445312 28.492188 199.859375 28.570312 C 200.277344 28.648438 200.691406 28.804688 201.097656 29.039062 C 201.503906 29.273438 201.847656 29.601562 202.117188 30.027344 C 202.390625 30.453125 202.527344 31.015625 202.527344 31.710938 C 202.527344 32.390625 202.421875 33.101562 202.222656 33.835938 C 202.015625 34.574219 201.789062 35.390625 201.535156 36.28125 C 201.285156 37.171875 201.054688 38.203125 200.851562 39.367188 C 200.648438 40.53125 200.546875 41.890625 200.546875 43.441406 C 200.546875 44.777344 200.621094 45.917969 200.765625 46.863281 C 200.910156 47.800781 201.09375 48.617188 201.316406 49.308594 C 201.542969 49.996094 201.765625 50.59375 201.988281 51.109375 C 202.210938 51.625 202.394531 52.113281 202.539062 52.578125 C 202.6875 53.042969 202.761719 53.539062 202.761719 54.0625 C 202.761719 54.914062 202.429688 55.671875 201.765625 56.328125 C 201.105469 56.988281 200.226562 57.503906 199.121094 57.871094 C 198.015625 58.238281 196.773438 58.425781 195.394531 58.425781 C 194.796875 58.425781 194.328125 58.335938 194 58.160156 C 193.671875 57.988281 193.402344 57.789062 193.199219 57.566406 C 192.992188 57.34375 192.777344 57.148438 192.542969 56.972656 C 192.308594 56.796875 192 56.710938 191.613281 56.710938 C 191.1875 56.710938 190.804688 56.796875 190.476562 56.972656 C 190.148438 57.148438 189.773438 57.34375 189.355469 57.566406 C 188.941406 57.789062 188.421875 57.988281 187.800781 58.160156 C 187.179688 58.335938 186.363281 58.425781 185.359375 58.425781 C 183.75 58.425781 182.226562 58.066406 180.800781 57.351562 C 179.378906 56.632812 178.125 55.617188 177.046875 54.296875 C 175.972656 52.976562 175.128906 51.394531 174.519531 49.550781 C 173.90625 47.707031 173.601562 45.671875 173.601562 43.441406 Z M 187.246094 36.136719 C 186.472656 36.136719 185.847656 36.808594 185.367188 38.148438 C 184.894531 39.484375 184.65625 41.25 184.65625 43.441406 C 184.65625 45.613281 184.894531 47.367188 185.367188 48.707031 C 185.847656 50.046875 186.472656 50.710938 187.246094 50.710938 C 188.027344 50.710938 188.652344 50.046875 189.125 48.707031 C 189.601562 47.367188 189.839844 45.613281 189.839844 43.441406 C 189.839844 41.25 189.601562 39.484375 189.125 38.148438 C 188.652344 36.808594 188.027344 36.136719 187.246094 36.136719 Z M 187.246094 36.136719 " fill-opacity="1" fill-rule="nonzero"/><path fill="#eeede8" d="M 213 58.425781 C 211.195312 58.425781 209.5625 58.042969 208.097656 57.277344 C 206.632812 56.507812 205.46875 55.394531 204.601562 53.929688 C 203.742188 52.46875 203.308594 50.695312 203.308594 48.617188 C 203.308594 47.242188 203.484375 45.921875 203.835938 44.664062 C 204.183594 43.402344 204.621094 42.210938 205.140625 41.085938 C 205.667969 39.957031 206.183594 38.910156 206.699219 37.941406 C 207.210938 36.96875 207.644531 36.082031 207.996094 35.28125 C 208.34375 34.472656 208.519531 33.75 208.519531 33.109375 C 208.519531 32.605469 208.449219 32.265625 208.3125 32.089844 C 208.179688 31.914062 207.976562 31.828125 207.703125 31.828125 C 207.453125 31.828125 207.140625 31.875 206.773438 31.972656 C 206.402344 32.070312 206.007812 32.117188 205.582031 32.117188 C 204.765625 32.117188 204.1875 31.949219 203.847656 31.613281 C 203.507812 31.273438 203.339844 30.800781 203.339844 30.195312 C 203.339844 29.460938 203.804688 28.578125 204.734375 27.550781 C 205.667969 26.523438 206.871094 25.328125 208.347656 23.972656 C 209.21875 23.15625 210.054688 22.351562 210.863281 21.558594 C 211.667969 20.761719 212.386719 20.101562 213.011719 19.582031 C 213.644531 19.054688 214.125 18.792969 214.457031 18.792969 C 214.84375 18.792969 215.128906 18.925781 215.3125 19.1875 C 215.496094 19.449219 215.625 19.773438 215.691406 20.160156 C 215.761719 20.550781 215.796875 20.917969 215.796875 21.265625 L 215.796875 28.890625 L 216.984375 28.890625 C 217.449219 28.890625 217.828125 29.035156 218.121094 29.324219 C 218.414062 29.617188 218.558594 29.996094 218.558594 30.460938 L 218.558594 30.546875 C 218.558594 31.015625 218.414062 31.390625 218.121094 31.683594 C 217.828125 31.972656 217.449219 32.117188 216.984375 32.117188 L 215.796875 32.117188 L 215.796875 43.441406 C 215.796875 45.226562 215.929688 46.679688 216.203125 47.804688 C 216.476562 48.925781 216.8125 49.824219 217.21875 50.496094 C 217.625 51.164062 218.03125 51.703125 218.4375 52.113281 C 218.847656 52.519531 219.1875 52.882812 219.460938 53.207031 C 219.730469 53.523438 219.867188 53.917969 219.867188 54.382812 C 219.867188 55.023438 219.65625 55.59375 219.238281 56.101562 C 218.824219 56.605469 218.273438 57.03125 217.59375 57.378906 C 216.917969 57.726562 216.175781 57.988281 215.371094 58.160156 C 214.566406 58.335938 213.777344 58.425781 213 58.425781 Z M 213 58.425781 " fill-opacity="1" fill-rule="nonzero"/></svg>