<svg xmlns="http://www.w3.org/2000/svg" xmlns:xlink="http://www.w3.org/1999/xlink" width="1000" zoomAndPan="magnify" viewBox="0 313 750 123" height="1000" preserveAspectRatio="xMidYMid meet" version="1.0"><defs><g/><clipPath id="2a7127f57f"><path d="M 594 0.441406 L 630 0.441406 L 630 93 L 594 93 Z M 594 0.441406 " clip-rule="nonzero"/></clipPath><clipPath id="96509e1349"><rect x="0" width="750" y="0" height="123"/></clipPath></defs><g transform="matrix(1, 0, 0, 1, 0, 313)"><g clip-path="url(#96509e1349)"><g fill="#eeede8" fill-opacity="1"><g transform="translate(0.099507, 92.322657)"><g><path d="M 1.25 -64.921875 L 1.25 -84 C 1.25 -85.925781 1.832031 -87.472656 3 -88.640625 C 4.175781 -89.816406 5.726562 -90.40625 7.65625 -90.40625 L 64.28125 -90.40625 C 66.207031 -90.40625 67.753906 -89.816406 68.921875 -88.640625 C 70.097656 -87.472656 70.6875 -85.925781 70.6875 -84 L 70.6875 -64.921875 C 70.6875 -63.953125 70.351562 -63.175781 69.6875 -62.59375 C 69.019531 -62.007812 68.222656 -61.71875 67.296875 -61.71875 C 66.003906 -61.71875 64.800781 -61.96875 63.6875 -62.46875 C 62.582031 -62.96875 61.484375 -63.601562 60.390625 -64.375 C 59.304688 -65.15625 58.1875 -65.921875 57.03125 -66.671875 C 55.882812 -67.421875 54.609375 -68.046875 53.203125 -68.546875 C 51.804688 -69.054688 50.226562 -69.3125 48.46875 -69.3125 L 47.53125 -69.3125 L 47.53125 -45.203125 C 47.53125 -40.722656 47.664062 -36.859375 47.9375 -33.609375 C 48.207031 -30.367188 48.5625 -27.578125 49 -25.234375 C 49.4375 -22.890625 49.894531 -20.859375 50.375 -19.140625 C 50.863281 -17.429688 51.328125 -15.882812 51.765625 -14.5 C 52.203125 -13.125 52.554688 -11.742188 52.828125 -10.359375 C 53.097656 -8.972656 53.234375 -7.425781 53.234375 -5.71875 C 53.234375 -4.164062 52.867188 -2.988281 52.140625 -2.1875 C 51.410156 -1.394531 50.507812 -0.84375 49.4375 -0.53125 C 48.375 -0.21875 47.316406 -0.0507812 46.265625 -0.03125 C 45.222656 -0.0078125 44.367188 0 43.703125 0 L 27.5 0 C 26.832031 0 25.972656 -0.0078125 24.921875 -0.03125 C 23.878906 -0.0507812 22.820312 -0.21875 21.75 -0.53125 C 20.6875 -0.84375 19.785156 -1.394531 19.046875 -2.1875 C 18.316406 -2.988281 17.953125 -4.164062 17.953125 -5.71875 C 17.953125 -7.425781 18.085938 -8.972656 18.359375 -10.359375 C 18.628906 -11.742188 18.984375 -13.125 19.421875 -14.5 C 19.867188 -15.882812 20.332031 -17.429688 20.8125 -19.140625 C 21.289062 -20.859375 21.75 -22.890625 22.1875 -25.234375 C 22.632812 -27.578125 22.992188 -30.367188 23.265625 -33.609375 C 23.535156 -36.859375 23.671875 -40.722656 23.671875 -45.203125 L 23.671875 -69.3125 L 23.484375 -69.3125 C 21.722656 -69.3125 20.140625 -69.054688 18.734375 -68.546875 C 17.335938 -68.046875 16.0625 -67.421875 14.90625 -66.671875 C 13.757812 -65.921875 12.640625 -65.15625 11.546875 -64.375 C 10.460938 -63.601562 9.363281 -62.96875 8.25 -62.46875 C 7.144531 -61.96875 5.941406 -61.71875 4.640625 -61.71875 C 3.722656 -61.71875 2.925781 -62.007812 2.25 -62.59375 C 1.582031 -63.175781 1.25 -63.953125 1.25 -64.921875 Z M 1.25 -64.921875 "/></g></g></g><g fill="#eeede8" fill-opacity="1"><g transform="translate(72.034026, 92.322657)"><g><path d="M 0.625 -19.71875 C 0.625 -21.976562 0.757812 -23.898438 1.03125 -25.484375 C 1.300781 -27.078125 1.601562 -28.539062 1.9375 -29.875 C 2.28125 -31.21875 2.585938 -32.585938 2.859375 -33.984375 C 3.128906 -35.390625 3.265625 -37.035156 3.265625 -38.921875 C 3.265625 -40.765625 3.140625 -42.414062 2.890625 -43.875 C 2.640625 -45.34375 2.332031 -46.734375 1.96875 -48.046875 C 1.613281 -49.367188 1.3125 -50.742188 1.0625 -52.171875 C 0.8125 -53.597656 0.6875 -55.1875 0.6875 -56.9375 C 0.6875 -58.445312 1.082031 -59.628906 1.875 -60.484375 C 2.675781 -61.347656 3.578125 -61.945312 4.578125 -62.28125 C 5.585938 -62.613281 6.382812 -62.78125 6.96875 -62.78125 L 19.65625 -62.78125 C 21.40625 -62.78125 22.84375 -62.242188 23.96875 -61.171875 C 25.101562 -60.109375 25.984375 -58.75 26.609375 -57.09375 C 27.242188 -55.445312 27.675781 -53.691406 27.90625 -51.828125 C 28.132812 -49.960938 28.25 -48.234375 28.25 -46.640625 C 28.25 -43.460938 28.019531 -40.617188 27.5625 -38.109375 C 27.101562 -35.597656 26.566406 -33.347656 25.953125 -31.359375 C 25.347656 -29.367188 24.816406 -27.578125 24.359375 -25.984375 C 23.898438 -24.398438 23.671875 -22.914062 23.671875 -21.53125 C 23.671875 -20.070312 23.941406 -18.722656 24.484375 -17.484375 C 25.023438 -16.242188 25.90625 -15.625 27.125 -15.625 C 28.539062 -15.625 29.75 -16.234375 30.75 -17.453125 C 31.757812 -18.671875 32.578125 -20.257812 33.203125 -22.21875 C 33.835938 -24.1875 34.300781 -26.300781 34.59375 -28.5625 C 34.882812 -30.820312 35.03125 -33.019531 35.03125 -35.15625 C 35.03125 -37.957031 34.925781 -40.414062 34.71875 -42.53125 C 34.507812 -44.644531 34.269531 -46.53125 34 -48.1875 C 33.726562 -49.84375 33.484375 -51.390625 33.265625 -52.828125 C 33.054688 -54.273438 32.953125 -55.726562 32.953125 -57.1875 C 32.953125 -58.695312 33.242188 -59.835938 33.828125 -60.609375 C 34.421875 -61.390625 35.15625 -61.9375 36.03125 -62.25 C 36.914062 -62.5625 37.816406 -62.726562 38.734375 -62.75 C 39.660156 -62.769531 40.457031 -62.78125 41.125 -62.78125 L 54.6875 -62.78125 C 55.351562 -62.78125 56.207031 -62.769531 57.25 -62.75 C 58.300781 -62.726562 59.359375 -62.5625 60.421875 -62.25 C 61.492188 -61.9375 62.394531 -61.390625 63.125 -60.609375 C 63.851562 -59.835938 64.21875 -58.695312 64.21875 -57.1875 C 64.21875 -55.726562 63.9375 -54.085938 63.375 -52.265625 C 62.8125 -50.441406 62.160156 -48.390625 61.421875 -46.109375 C 60.691406 -43.828125 60.046875 -41.273438 59.484375 -38.453125 C 58.921875 -35.628906 58.640625 -32.457031 58.640625 -28.9375 C 58.640625 -26.132812 58.921875 -23.613281 59.484375 -21.375 C 60.046875 -19.132812 60.710938 -17.09375 61.484375 -15.25 C 62.265625 -13.414062 62.9375 -11.710938 63.5 -10.140625 C 64.0625 -8.566406 64.34375 -7.050781 64.34375 -5.59375 C 64.34375 -4.082031 64.03125 -2.9375 63.40625 -2.15625 C 62.78125 -1.382812 61.992188 -0.84375 61.046875 -0.53125 C 60.109375 -0.21875 59.164062 -0.0507812 58.21875 -0.03125 C 57.28125 -0.0078125 56.476562 0 55.8125 0 L 44.265625 0 C 41.960938 0 40.128906 -0.375 38.765625 -1.125 C 37.410156 -1.882812 36.375 -3.117188 35.65625 -4.828125 C 35.15625 -3.867188 34.140625 -2.945312 32.609375 -2.0625 C 31.085938 -1.1875 29.363281 -0.46875 27.4375 0.09375 C 25.507812 0.65625 23.6875 0.9375 21.96875 0.9375 C 16.65625 0.9375 12.4375 0.0507812 9.3125 -1.71875 C 6.195312 -3.5 3.96875 -5.9375 2.625 -9.03125 C 1.289062 -12.132812 0.625 -15.695312 0.625 -19.71875 Z M 0.625 -19.71875 "/></g></g></g><g fill="#eeede8" fill-opacity="1"><g transform="translate(137.001063, 92.322657)"><g><path d="M 0.625 -53.921875 C 0.625 -55.390625 1.207031 -56.53125 2.375 -57.34375 C 3.550781 -58.164062 5.039062 -58.835938 6.84375 -59.359375 C 8.644531 -59.878906 10.488281 -60.390625 12.375 -60.890625 C 13.125 -61.109375 14.070312 -61.375 15.21875 -61.6875 C 16.375 -62 17.546875 -62.3125 18.734375 -62.625 C 19.929688 -62.9375 21 -63.195312 21.9375 -63.40625 C 22.882812 -63.613281 23.566406 -63.71875 23.984375 -63.71875 C 25.148438 -63.71875 26.265625 -63.269531 27.328125 -62.375 C 28.398438 -61.476562 29.273438 -59.8125 29.953125 -57.375 C 30.035156 -57.039062 30.171875 -56.769531 30.359375 -56.5625 C 30.546875 -56.351562 30.847656 -56.25 31.265625 -56.25 C 31.640625 -56.25 32.328125 -56.625 33.328125 -57.375 C 34.335938 -58.132812 35.632812 -59.003906 37.21875 -59.984375 C 38.8125 -60.972656 40.695312 -61.84375 42.875 -62.59375 C 45.050781 -63.34375 47.519531 -63.71875 50.28125 -63.71875 C 54.09375 -63.71875 57.171875 -62.867188 59.515625 -61.171875 C 61.859375 -59.484375 63.582031 -57.148438 64.6875 -54.171875 C 65.800781 -51.203125 66.359375 -47.796875 66.359375 -43.953125 L 66.359375 -31.390625 C 66.359375 -28.503906 66.640625 -25.847656 67.203125 -23.421875 C 67.773438 -20.992188 68.445312 -18.742188 69.21875 -16.671875 C 69.988281 -14.597656 70.65625 -12.648438 71.21875 -10.828125 C 71.789062 -9.003906 72.078125 -7.257812 72.078125 -5.59375 C 72.078125 -4.082031 71.707031 -2.9375 70.96875 -2.15625 C 70.238281 -1.382812 69.335938 -0.84375 68.265625 -0.53125 C 67.203125 -0.21875 66.144531 -0.0507812 65.09375 -0.03125 C 64.050781 -0.0078125 63.195312 0 62.53125 0 L 50.796875 0 C 50.242188 0 49.5 0 48.5625 0 C 47.625 0 46.609375 -0.0703125 45.515625 -0.21875 C 44.429688 -0.363281 43.382812 -0.625 42.375 -1 C 41.375 -1.375 40.554688 -1.925781 39.921875 -2.65625 C 39.296875 -3.394531 38.984375 -4.375 38.984375 -5.59375 C 38.984375 -8.394531 39.285156 -11.207031 39.890625 -14.03125 C 40.503906 -16.851562 41.113281 -19.707031 41.71875 -22.59375 C 42.320312 -25.488281 42.582031 -28.421875 42.5 -31.390625 C 42.457031 -32.691406 42.351562 -34.0625 42.1875 -35.5 C 42.019531 -36.945312 41.726562 -38.304688 41.3125 -39.578125 C 40.894531 -40.859375 40.285156 -41.90625 39.484375 -42.71875 C 38.691406 -43.539062 37.664062 -43.953125 36.40625 -43.953125 C 35.070312 -43.953125 34.003906 -43.539062 33.203125 -42.71875 C 32.410156 -41.90625 31.828125 -40.859375 31.453125 -39.578125 C 31.078125 -38.304688 30.835938 -36.9375 30.734375 -35.46875 C 30.628906 -34.007812 30.578125 -32.648438 30.578125 -31.390625 C 30.578125 -28.960938 30.867188 -26.578125 31.453125 -24.234375 C 32.035156 -21.890625 32.703125 -19.628906 33.453125 -17.453125 C 34.210938 -15.273438 34.882812 -13.191406 35.46875 -11.203125 C 36.050781 -9.210938 36.34375 -7.34375 36.34375 -5.59375 C 36.34375 -4.375 36.03125 -3.394531 35.40625 -2.65625 C 34.78125 -1.925781 33.960938 -1.375 32.953125 -1 C 31.953125 -0.625 30.90625 -0.363281 29.8125 -0.21875 C 28.726562 -0.0703125 27.710938 0 26.765625 0 C 25.828125 0 25.085938 0 24.546875 0 L 10.609375 0 C 9.941406 0 9.082031 -0.0078125 8.03125 -0.03125 C 6.988281 -0.0507812 5.929688 -0.21875 4.859375 -0.53125 C 3.796875 -0.84375 2.894531 -1.382812 2.15625 -2.15625 C 1.425781 -2.9375 1.0625 -4.082031 1.0625 -5.59375 C 1.0625 -7.257812 1.34375 -9.003906 1.90625 -10.828125 C 2.476562 -12.648438 3.148438 -14.597656 3.921875 -16.671875 C 4.691406 -18.742188 5.359375 -20.992188 5.921875 -23.421875 C 6.492188 -25.847656 6.78125 -28.503906 6.78125 -31.390625 C 6.78125 -34.148438 6.570312 -36.492188 6.15625 -38.421875 C 5.738281 -40.347656 5.222656 -42 4.609375 -43.375 C 4.003906 -44.757812 3.398438 -45.992188 2.796875 -47.078125 C 2.191406 -48.171875 1.675781 -49.25 1.25 -50.3125 C 0.832031 -51.382812 0.625 -52.585938 0.625 -53.921875 Z M 0.625 -53.921875 "/></g></g></g><g fill="#eeede8" fill-opacity="1"><g transform="translate(205.922177, 92.322657)"><g><path d="M 1.5625 -31.390625 C 1.5625 -35.742188 2.050781 -39.570312 3.03125 -42.875 C 4.019531 -46.1875 5.351562 -49.035156 7.03125 -51.421875 C 8.707031 -53.804688 10.570312 -55.78125 12.625 -57.34375 C 14.675781 -58.914062 16.785156 -60.171875 18.953125 -61.109375 C 21.128906 -62.054688 23.222656 -62.726562 25.234375 -63.125 C 27.242188 -63.519531 29.003906 -63.71875 30.515625 -63.71875 C 33.234375 -63.757812 35.394531 -63.695312 37 -63.53125 C 38.613281 -63.363281 39.953125 -63.195312 41.015625 -63.03125 C 42.085938 -62.863281 43.148438 -62.78125 44.203125 -62.78125 C 46.378906 -62.78125 48.132812 -62.863281 49.46875 -63.03125 C 50.8125 -63.195312 51.972656 -63.351562 52.953125 -63.5 C 53.941406 -63.644531 54.914062 -63.71875 55.875 -63.71875 C 56.539062 -63.71875 57.320312 -63.632812 58.21875 -63.46875 C 59.125 -63.300781 60.015625 -62.96875 60.890625 -62.46875 C 61.773438 -61.96875 62.507812 -61.253906 63.09375 -60.328125 C 63.675781 -59.410156 63.96875 -58.195312 63.96875 -56.6875 C 63.96875 -55.226562 63.75 -53.703125 63.3125 -52.109375 C 62.875 -50.515625 62.382812 -48.753906 61.84375 -46.828125 C 61.300781 -44.910156 60.804688 -42.691406 60.359375 -40.171875 C 59.921875 -37.660156 59.703125 -34.734375 59.703125 -31.390625 C 59.703125 -28.503906 59.859375 -26.046875 60.171875 -24.015625 C 60.484375 -21.984375 60.878906 -20.222656 61.359375 -18.734375 C 61.847656 -17.253906 62.332031 -15.957031 62.8125 -14.84375 C 63.289062 -13.738281 63.6875 -12.679688 64 -11.671875 C 64.3125 -10.671875 64.46875 -9.601562 64.46875 -8.46875 C 64.46875 -6.632812 63.753906 -5.003906 62.328125 -3.578125 C 60.910156 -2.148438 59.007812 -1.039062 56.625 -0.25 C 54.238281 0.539062 51.5625 0.9375 48.59375 0.9375 C 47.289062 0.9375 46.285156 0.75 45.578125 0.375 C 44.867188 0 44.289062 -0.425781 43.84375 -0.90625 C 43.40625 -1.382812 42.9375 -1.8125 42.4375 -2.1875 C 41.9375 -2.570312 41.269531 -2.765625 40.4375 -2.765625 C 39.507812 -2.765625 38.691406 -2.570312 37.984375 -2.1875 C 37.273438 -1.8125 36.46875 -1.382812 35.5625 -0.90625 C 34.664062 -0.425781 33.546875 0 32.203125 0.375 C 30.867188 0.75 29.113281 0.9375 26.9375 0.9375 C 23.457031 0.9375 20.179688 0.164062 17.109375 -1.375 C 14.035156 -2.925781 11.335938 -5.125 9.015625 -7.96875 C 6.691406 -10.820312 4.867188 -14.234375 3.546875 -18.203125 C 2.222656 -22.179688 1.5625 -26.578125 1.5625 -31.390625 Z M 31.015625 -47.15625 C 29.335938 -47.15625 27.984375 -45.707031 26.953125 -42.8125 C 25.929688 -39.925781 25.421875 -36.117188 25.421875 -31.390625 C 25.421875 -26.703125 25.929688 -22.914062 26.953125 -20.03125 C 27.984375 -17.144531 29.335938 -15.703125 31.015625 -15.703125 C 32.691406 -15.703125 34.039062 -17.144531 35.0625 -20.03125 C 36.082031 -22.914062 36.59375 -26.703125 36.59375 -31.390625 C 36.59375 -36.117188 36.082031 -39.925781 35.0625 -42.8125 C 34.039062 -45.707031 32.691406 -47.15625 31.015625 -47.15625 Z M 31.015625 -47.15625 "/></g></g></g><g fill="#eeede8" fill-opacity="1"><g transform="translate(270.95198, 92.322657)"><g><path d="M 9.109375 0 C 7.722656 0 6.429688 -0.101562 5.234375 -0.3125 C 4.046875 -0.519531 3.082031 -0.9375 2.34375 -1.5625 C 1.613281 -2.195312 1.25 -3.097656 1.25 -4.265625 C 1.25 -5.441406 1.414062 -6.4375 1.75 -7.25 C 2.09375 -8.0625 2.554688 -8.863281 3.140625 -9.65625 C 3.722656 -10.457031 4.378906 -11.359375 5.109375 -12.359375 C 5.847656 -13.367188 6.59375 -14.625 7.34375 -16.125 C 8.09375 -17.632812 8.828125 -19.539062 9.546875 -21.84375 C 10.628906 -25.363281 11.546875 -28.398438 12.296875 -30.953125 C 13.054688 -33.503906 13.71875 -35.753906 14.28125 -37.703125 C 14.84375 -39.648438 15.351562 -41.445312 15.8125 -43.09375 C 16.28125 -44.75 16.734375 -46.398438 17.171875 -48.046875 C 17.609375 -49.703125 18.097656 -51.515625 18.640625 -53.484375 C 19.191406 -55.453125 19.8125 -57.734375 20.5 -60.328125 C 21.1875 -62.921875 22.035156 -65.976562 23.046875 -69.5 C 23.710938 -71.925781 24.179688 -73.828125 24.453125 -75.203125 C 24.722656 -76.585938 24.878906 -77.726562 24.921875 -78.625 C 24.960938 -79.53125 24.941406 -80.441406 24.859375 -81.359375 C 24.773438 -82.285156 24.691406 -83.476562 24.609375 -84.9375 C 24.609375 -85.28125 24.628906 -85.742188 24.671875 -86.328125 C 24.710938 -86.910156 24.878906 -87.515625 25.171875 -88.140625 C 25.460938 -88.773438 25.960938 -89.3125 26.671875 -89.75 C 27.390625 -90.1875 28.398438 -90.40625 29.703125 -90.40625 L 46.640625 -90.40625 C 47.898438 -90.40625 49 -90.382812 49.9375 -90.34375 C 50.882812 -90.300781 51.734375 -90.070312 52.484375 -89.65625 C 53.234375 -89.238281 53.953125 -88.484375 54.640625 -87.390625 C 55.335938 -86.304688 56.050781 -84.738281 56.78125 -82.6875 C 57.519531 -80.632812 58.347656 -77.929688 59.265625 -74.578125 C 60.441406 -70.484375 61.445312 -66.875 62.28125 -63.75 C 63.113281 -60.632812 63.863281 -57.832031 64.53125 -55.34375 C 65.207031 -52.851562 65.859375 -50.445312 66.484375 -48.125 C 67.109375 -45.800781 67.773438 -43.394531 68.484375 -40.90625 C 69.203125 -38.414062 70.007812 -35.640625 70.90625 -32.578125 C 71.8125 -29.523438 72.890625 -25.945312 74.140625 -21.84375 C 74.859375 -19.539062 75.59375 -17.632812 76.34375 -16.125 C 77.09375 -14.625 77.832031 -13.367188 78.5625 -12.359375 C 79.300781 -11.359375 79.960938 -10.457031 80.546875 -9.65625 C 81.128906 -8.863281 81.585938 -8.0625 81.921875 -7.25 C 82.265625 -6.4375 82.4375 -5.441406 82.4375 -4.265625 C 82.4375 -3.097656 82.066406 -2.195312 81.328125 -1.5625 C 80.597656 -0.9375 79.644531 -0.519531 78.46875 -0.3125 C 77.300781 -0.101562 76.003906 0 74.578125 0 L 51.484375 0 C 50.515625 0 49.5625 -0.132812 48.625 -0.40625 C 47.6875 -0.675781 46.910156 -1.113281 46.296875 -1.71875 C 45.691406 -2.332031 45.390625 -3.160156 45.390625 -4.203125 C 45.390625 -5.585938 45.503906 -6.6875 45.734375 -7.5 C 45.960938 -8.320312 46.222656 -9.097656 46.515625 -9.828125 C 46.804688 -10.554688 47.066406 -11.453125 47.296875 -12.515625 C 47.535156 -13.585938 47.65625 -15.066406 47.65625 -16.953125 C 47.65625 -17.992188 47.59375 -19.101562 47.46875 -20.28125 L 31.390625 -20.28125 C 31.429688 -19.738281 31.492188 -19.191406 31.578125 -18.640625 C 31.660156 -18.097656 31.722656 -17.535156 31.765625 -16.953125 C 32.015625 -15.066406 32.316406 -13.585938 32.671875 -12.515625 C 33.035156 -11.453125 33.375 -10.554688 33.6875 -9.828125 C 34 -9.097656 34.269531 -8.320312 34.5 -7.5 C 34.726562 -6.6875 34.84375 -5.585938 34.84375 -4.203125 C 34.84375 -3.160156 34.535156 -2.332031 33.921875 -1.71875 C 33.316406 -1.113281 32.546875 -0.675781 31.609375 -0.40625 C 30.671875 -0.132812 29.71875 0 28.75 0 Z M 31.515625 -41.75 L 42.6875 -41.75 C 42.144531 -43.675781 41.582031 -45.71875 41 -47.875 C 40.414062 -50.03125 39.765625 -52.320312 39.046875 -54.75 C 38.628906 -56.164062 38.210938 -57.351562 37.796875 -58.3125 C 37.378906 -59.28125 36.9375 -59.722656 36.46875 -59.640625 C 36.050781 -59.597656 35.632812 -59.019531 35.21875 -57.90625 C 34.800781 -56.800781 34.382812 -55.441406 33.96875 -53.828125 C 33.550781 -52.222656 33.160156 -50.570312 32.796875 -48.875 C 32.441406 -47.175781 32.160156 -45.675781 31.953125 -44.375 C 31.742188 -43.082031 31.597656 -42.207031 31.515625 -41.75 Z M 31.515625 -41.75 "/></g></g></g><g fill="#eeede8" fill-opacity="1"><g transform="translate(351.485641, 92.322657)"><g><path d="M 21.53125 0.9375 C 17.644531 0.9375 14.117188 0.113281 10.953125 -1.53125 C 7.796875 -3.1875 5.285156 -5.59375 3.421875 -8.75 C 1.554688 -11.914062 0.625 -15.738281 0.625 -20.21875 C 0.625 -23.1875 1 -26.03125 1.75 -28.75 C 2.507812 -31.46875 3.453125 -34.039062 4.578125 -36.46875 C 5.710938 -38.90625 6.832031 -41.164062 7.9375 -43.25 C 9.050781 -45.34375 9.984375 -47.257812 10.734375 -49 C 11.484375 -50.738281 11.859375 -52.296875 11.859375 -53.671875 C 11.859375 -54.765625 11.710938 -55.5 11.421875 -55.875 C 11.128906 -56.25 10.691406 -56.4375 10.109375 -56.4375 C 9.566406 -56.4375 8.894531 -56.332031 8.09375 -56.125 C 7.300781 -55.914062 6.445312 -55.8125 5.53125 -55.8125 C 3.769531 -55.8125 2.519531 -56.175781 1.78125 -56.90625 C 1.050781 -57.644531 0.6875 -58.660156 0.6875 -59.953125 C 0.6875 -61.546875 1.691406 -63.453125 3.703125 -65.671875 C 5.710938 -67.890625 8.304688 -70.460938 11.484375 -73.390625 C 13.367188 -75.148438 15.179688 -76.882812 16.921875 -78.59375 C 18.660156 -80.3125 20.207031 -81.734375 21.5625 -82.859375 C 22.925781 -83.992188 23.960938 -84.5625 24.671875 -84.5625 C 25.503906 -84.5625 26.117188 -84.28125 26.515625 -83.71875 C 26.921875 -83.15625 27.195312 -82.453125 27.34375 -81.609375 C 27.488281 -80.773438 27.5625 -79.984375 27.5625 -79.234375 L 27.5625 -62.78125 L 30.140625 -62.78125 C 31.140625 -62.78125 31.953125 -62.460938 32.578125 -61.828125 C 33.210938 -61.203125 33.53125 -60.390625 33.53125 -59.390625 L 33.53125 -59.203125 C 33.53125 -58.203125 33.210938 -57.382812 32.578125 -56.75 C 31.953125 -56.125 31.140625 -55.8125 30.140625 -55.8125 L 27.5625 -55.8125 L 27.5625 -31.390625 C 27.5625 -27.535156 27.851562 -24.394531 28.4375 -21.96875 C 29.019531 -19.539062 29.75 -17.601562 30.625 -16.15625 C 31.507812 -14.71875 32.390625 -13.554688 33.265625 -12.671875 C 34.148438 -11.796875 34.882812 -11.015625 35.46875 -10.328125 C 36.050781 -9.640625 36.34375 -8.789062 36.34375 -7.78125 C 36.34375 -6.40625 35.894531 -5.171875 35 -4.078125 C 34.101562 -2.992188 32.921875 -2.070312 31.453125 -1.3125 C 29.984375 -0.5625 28.378906 0 26.640625 0.375 C 24.910156 0.75 23.207031 0.9375 21.53125 0.9375 Z M 21.53125 0.9375 "/></g></g></g><g fill="#eeede8" fill-opacity="1"><g transform="translate(388.45721, 92.322657)"><g><path d="M 6.34375 -46.453125 C 6.34375 -50.765625 6.054688 -54.726562 5.484375 -58.34375 C 4.921875 -61.96875 4.253906 -65.328125 3.484375 -68.421875 C 2.710938 -71.523438 2.039062 -74.425781 1.46875 -77.125 C 0.90625 -79.820312 0.625 -82.382812 0.625 -84.8125 C 0.625 -86.320312 0.988281 -87.460938 1.71875 -88.234375 C 2.457031 -89.015625 3.359375 -89.5625 4.421875 -89.875 C 5.492188 -90.1875 6.550781 -90.351562 7.59375 -90.375 C 8.644531 -90.394531 9.503906 -90.40625 10.171875 -90.40625 L 25.671875 -90.40625 C 26.347656 -90.40625 27.207031 -90.394531 28.25 -90.375 C 29.300781 -90.351562 30.359375 -90.1875 31.421875 -89.875 C 32.484375 -89.5625 33.378906 -89.015625 34.109375 -88.234375 C 34.847656 -87.460938 35.21875 -86.320312 35.21875 -84.8125 C 35.21875 -82.507812 34.945312 -80.238281 34.40625 -78 C 33.863281 -75.757812 33.222656 -73.570312 32.484375 -71.4375 C 31.753906 -69.3125 31.117188 -67.234375 30.578125 -65.203125 C 30.035156 -63.171875 29.765625 -61.210938 29.765625 -59.328125 C 29.765625 -58.242188 29.773438 -57.53125 29.796875 -57.1875 C 29.816406 -56.851562 29.992188 -56.6875 30.328125 -56.6875 C 30.660156 -56.6875 31.328125 -57.039062 32.328125 -57.75 C 33.335938 -58.46875 34.707031 -59.285156 36.4375 -60.203125 C 38.175781 -61.128906 40.289062 -61.945312 42.78125 -62.65625 C 45.269531 -63.363281 48.148438 -63.71875 51.421875 -63.71875 C 55.222656 -63.71875 58.296875 -62.867188 60.640625 -61.171875 C 62.984375 -59.484375 64.707031 -57.148438 65.8125 -54.171875 C 66.925781 -51.203125 67.484375 -47.796875 67.484375 -43.953125 L 67.484375 -27.625 C 67.484375 -24.820312 67.765625 -22.363281 68.328125 -20.25 C 68.898438 -18.132812 69.570312 -16.25 70.34375 -14.59375 C 71.125 -12.9375 71.796875 -11.382812 72.359375 -9.9375 C 72.921875 -8.5 73.203125 -7.050781 73.203125 -5.59375 C 73.203125 -4.082031 72.832031 -2.9375 72.09375 -2.15625 C 71.363281 -1.382812 70.460938 -0.84375 69.390625 -0.53125 C 68.328125 -0.21875 67.273438 -0.0507812 66.234375 -0.03125 C 65.191406 -0.0078125 64.332031 0 63.65625 0 L 49.71875 0 C 49.175781 0 48.429688 0 47.484375 0 C 46.546875 0 45.53125 -0.0703125 44.4375 -0.21875 C 43.351562 -0.363281 42.304688 -0.625 41.296875 -1 C 40.296875 -1.375 39.484375 -1.925781 38.859375 -2.65625 C 38.234375 -3.394531 37.921875 -4.375 37.921875 -5.59375 C 37.921875 -7.050781 38.203125 -8.5 38.765625 -9.9375 C 39.328125 -11.382812 39.992188 -12.9375 40.765625 -14.59375 C 41.546875 -16.25 42.21875 -18.132812 42.78125 -20.25 C 43.351562 -22.363281 43.640625 -24.820312 43.640625 -27.625 L 43.640625 -35.59375 C 43.640625 -36.8125 43.40625 -38.066406 42.9375 -39.359375 C 42.476562 -40.660156 41.753906 -41.75 40.765625 -42.625 C 39.785156 -43.507812 38.460938 -43.953125 36.796875 -43.953125 C 35.078125 -43.953125 33.679688 -43.507812 32.609375 -42.625 C 31.546875 -41.75 30.769531 -40.660156 30.28125 -39.359375 C 29.800781 -38.066406 29.5625 -36.8125 29.5625 -35.59375 L 29.5625 -27.625 C 29.5625 -24.820312 29.84375 -22.363281 30.40625 -20.25 C 30.976562 -18.132812 31.648438 -16.25 32.421875 -14.59375 C 33.203125 -12.9375 33.875 -11.382812 34.4375 -9.9375 C 35 -8.5 35.28125 -7.050781 35.28125 -5.59375 C 35.28125 -4.375 34.96875 -3.394531 34.34375 -2.65625 C 33.71875 -1.925781 32.898438 -1.375 31.890625 -1 C 30.890625 -0.625 29.84375 -0.363281 28.75 -0.21875 C 27.664062 -0.0703125 26.648438 0 25.703125 0 C 24.765625 0 24.023438 0 23.484375 0 L 10.171875 0 C 9.503906 0 8.644531 -0.0078125 7.59375 -0.03125 C 6.550781 -0.0507812 5.492188 -0.21875 4.421875 -0.53125 C 3.359375 -0.84375 2.457031 -1.382812 1.71875 -2.15625 C 0.988281 -2.9375 0.625 -4.082031 0.625 -5.59375 C 0.625 -7.257812 0.757812 -8.675781 1.03125 -9.84375 C 1.300781 -11.019531 1.65625 -12.191406 2.09375 -13.359375 C 2.539062 -14.535156 3.003906 -15.921875 3.484375 -17.515625 C 3.960938 -19.109375 4.421875 -21.117188 4.859375 -23.546875 C 5.304688 -25.972656 5.664062 -29.035156 5.9375 -32.734375 C 6.207031 -36.441406 6.34375 -41.015625 6.34375 -46.453125 Z M 6.34375 -46.453125 "/></g></g></g><g fill="#eeede8" fill-opacity="1"><g transform="translate(462.27482, 92.322657)"><g><path d="M 0.625 -5.59375 C 0.625 -7.257812 0.757812 -8.675781 1.03125 -9.84375 C 1.300781 -11.019531 1.65625 -12.191406 2.09375 -13.359375 C 2.539062 -14.535156 3.003906 -15.921875 3.484375 -17.515625 C 3.960938 -19.109375 4.421875 -21.117188 4.859375 -23.546875 C 5.304688 -25.972656 5.664062 -29.035156 5.9375 -32.734375 C 6.207031 -36.441406 6.34375 -41.015625 6.34375 -46.453125 C 6.34375 -50.804688 6.207031 -54.5625 5.9375 -57.71875 C 5.664062 -60.882812 5.304688 -63.609375 4.859375 -65.890625 C 4.421875 -68.171875 3.960938 -70.132812 3.484375 -71.78125 C 3.003906 -73.4375 2.539062 -74.941406 2.09375 -76.296875 C 1.65625 -77.660156 1.300781 -79.015625 1.03125 -80.359375 C 0.757812 -81.703125 0.625 -83.1875 0.625 -84.8125 C 0.625 -86.320312 0.988281 -87.460938 1.71875 -88.234375 C 2.457031 -89.015625 3.359375 -89.5625 4.421875 -89.875 C 5.492188 -90.1875 6.550781 -90.351562 7.59375 -90.375 C 8.644531 -90.394531 9.503906 -90.40625 10.171875 -90.40625 L 26.375 -90.40625 C 27.039062 -90.40625 27.894531 -90.394531 28.9375 -90.375 C 29.988281 -90.351562 31.046875 -90.1875 32.109375 -89.875 C 33.179688 -89.5625 34.082031 -89.015625 34.8125 -88.234375 C 35.539062 -87.460938 35.90625 -86.320312 35.90625 -84.8125 C 35.90625 -83.1875 35.769531 -81.703125 35.5 -80.359375 C 35.226562 -79.015625 34.875 -77.660156 34.4375 -76.296875 C 34 -74.941406 33.535156 -73.4375 33.046875 -71.78125 C 32.566406 -70.132812 32.109375 -68.171875 31.671875 -65.890625 C 31.234375 -63.609375 30.878906 -60.882812 30.609375 -57.71875 C 30.335938 -54.5625 30.203125 -50.804688 30.203125 -46.453125 C 30.203125 -41.015625 30.335938 -36.441406 30.609375 -32.734375 C 30.878906 -29.035156 31.234375 -25.972656 31.671875 -23.546875 C 32.109375 -21.117188 32.566406 -19.109375 33.046875 -17.515625 C 33.535156 -15.921875 34 -14.535156 34.4375 -13.359375 C 34.875 -12.191406 35.226562 -11.019531 35.5 -9.84375 C 35.769531 -8.675781 35.90625 -7.257812 35.90625 -5.59375 C 35.90625 -4.082031 35.539062 -2.9375 34.8125 -2.15625 C 34.082031 -1.382812 33.179688 -0.84375 32.109375 -0.53125 C 31.046875 -0.21875 29.988281 -0.0507812 28.9375 -0.03125 C 27.894531 -0.0078125 27.039062 0 26.375 0 L 10.171875 0 C 9.503906 0 8.644531 -0.0078125 7.59375 -0.03125 C 6.550781 -0.0507812 5.492188 -0.21875 4.421875 -0.53125 C 3.359375 -0.84375 2.457031 -1.382812 1.71875 -2.15625 C 0.988281 -2.9375 0.625 -4.082031 0.625 -5.59375 Z M 0.625 -5.59375 "/></g></g></g><g fill="#eeede8" fill-opacity="1"><g transform="translate(495.040365, 92.322657)"><g><path d="M 1.5625 -31.390625 C 1.5625 -35.367188 2.242188 -39.28125 3.609375 -43.125 C 4.972656 -46.976562 7.046875 -50.453125 9.828125 -53.546875 C 12.609375 -56.648438 16.125 -59.117188 20.375 -60.953125 C 24.625 -62.796875 29.65625 -63.71875 35.46875 -63.71875 C 38.695312 -63.71875 41.796875 -63.3125 44.765625 -62.5 C 47.734375 -61.6875 50.378906 -60.453125 52.703125 -58.796875 C 55.023438 -57.140625 56.863281 -55.078125 58.21875 -52.609375 C 59.582031 -50.140625 60.265625 -47.253906 60.265625 -43.953125 C 60.265625 -40.304688 59.707031 -37.144531 58.59375 -34.46875 C 57.488281 -31.789062 56.003906 -29.53125 54.140625 -27.6875 C 52.285156 -25.84375 50.226562 -24.320312 47.96875 -23.125 C 45.707031 -21.9375 43.425781 -20.988281 41.125 -20.28125 C 38.945312 -19.613281 37.03125 -19.300781 35.375 -19.34375 C 33.71875 -19.382812 32.410156 -19.40625 31.453125 -19.40625 C 30.910156 -19.40625 30.503906 -19.347656 30.234375 -19.234375 C 29.960938 -19.128906 29.828125 -18.890625 29.828125 -18.515625 C 29.828125 -17.847656 30.191406 -17.304688 30.921875 -16.890625 C 31.648438 -16.472656 32.523438 -16.171875 33.546875 -15.984375 C 34.578125 -15.796875 35.507812 -15.703125 36.34375 -15.703125 C 38.601562 -15.703125 40.507812 -15.984375 42.0625 -16.546875 C 43.613281 -17.109375 44.972656 -17.742188 46.140625 -18.453125 C 47.316406 -19.171875 48.445312 -19.8125 49.53125 -20.375 C 50.625 -20.9375 51.816406 -21.21875 53.109375 -21.21875 C 54.535156 -21.21875 55.757812 -20.867188 56.78125 -20.171875 C 57.8125 -19.484375 58.648438 -18.609375 59.296875 -17.546875 C 59.941406 -16.484375 60.421875 -15.382812 60.734375 -14.25 C 61.054688 -13.125 61.21875 -12.097656 61.21875 -11.171875 C 61.21875 -9.285156 60.304688 -7.410156 58.484375 -5.546875 C 56.660156 -3.691406 53.851562 -2.144531 50.0625 -0.90625 C 46.28125 0.320312 41.414062 0.9375 35.46875 0.9375 C 29.945312 0.9375 25.082031 0.03125 20.875 -1.78125 C 16.664062 -3.601562 13.128906 -6.0625 10.265625 -9.15625 C 7.398438 -12.257812 5.234375 -15.734375 3.765625 -19.578125 C 2.296875 -23.429688 1.5625 -27.367188 1.5625 -31.390625 Z M 25.796875 -38.046875 C 24.753906 -35.367188 24.378906 -33.203125 24.671875 -31.546875 C 24.960938 -29.890625 25.882812 -29.0625 27.4375 -29.0625 C 29.03125 -29.0625 30.628906 -29.890625 32.234375 -31.546875 C 33.847656 -33.203125 35.175781 -35.367188 36.21875 -38.046875 C 37.3125 -40.765625 37.703125 -42.953125 37.390625 -44.609375 C 37.078125 -46.265625 36.125 -47.09375 34.53125 -47.09375 C 32.976562 -47.09375 31.40625 -46.265625 29.8125 -44.609375 C 28.226562 -42.953125 26.890625 -40.765625 25.796875 -38.046875 Z M 25.796875 -38.046875 "/></g></g></g><g fill="#eeede8" fill-opacity="1"><g transform="translate(556.555045, 92.322657)"><g><path d="M 21.53125 0.9375 C 17.644531 0.9375 14.117188 0.113281 10.953125 -1.53125 C 7.796875 -3.1875 5.285156 -5.59375 3.421875 -8.75 C 1.554688 -11.914062 0.625 -15.738281 0.625 -20.21875 C 0.625 -23.1875 1 -26.03125 1.75 -28.75 C 2.507812 -31.46875 3.453125 -34.039062 4.578125 -36.46875 C 5.710938 -38.90625 6.832031 -41.164062 7.9375 -43.25 C 9.050781 -45.34375 9.984375 -47.257812 10.734375 -49 C 11.484375 -50.738281 11.859375 -52.296875 11.859375 -53.671875 C 11.859375 -54.765625 11.710938 -55.5 11.421875 -55.875 C 11.128906 -56.25 10.691406 -56.4375 10.109375 -56.4375 C 9.566406 -56.4375 8.894531 -56.332031 8.09375 -56.125 C 7.300781 -55.914062 6.445312 -55.8125 5.53125 -55.8125 C 3.769531 -55.8125 2.519531 -56.175781 1.78125 -56.90625 C 1.050781 -57.644531 0.6875 -58.660156 0.6875 -59.953125 C 0.6875 -61.546875 1.691406 -63.453125 3.703125 -65.671875 C 5.710938 -67.890625 8.304688 -70.460938 11.484375 -73.390625 C 13.367188 -75.148438 15.179688 -76.882812 16.921875 -78.59375 C 18.660156 -80.3125 20.207031 -81.734375 21.5625 -82.859375 C 22.925781 -83.992188 23.960938 -84.5625 24.671875 -84.5625 C 25.503906 -84.5625 26.117188 -84.28125 26.515625 -83.71875 C 26.921875 -83.15625 27.195312 -82.453125 27.34375 -81.609375 C 27.488281 -80.773438 27.5625 -79.984375 27.5625 -79.234375 L 27.5625 -62.78125 L 30.140625 -62.78125 C 31.140625 -62.78125 31.953125 -62.460938 32.578125 -61.828125 C 33.210938 -61.203125 33.53125 -60.390625 33.53125 -59.390625 L 33.53125 -59.203125 C 33.53125 -58.203125 33.210938 -57.382812 32.578125 -56.75 C 31.953125 -56.125 31.140625 -55.8125 30.140625 -55.8125 L 27.5625 -55.8125 L 27.5625 -31.390625 C 27.5625 -27.535156 27.851562 -24.394531 28.4375 -21.96875 C 29.019531 -19.539062 29.75 -17.601562 30.625 -16.15625 C 31.507812 -14.71875 32.390625 -13.554688 33.265625 -12.671875 C 34.148438 -11.796875 34.882812 -11.015625 35.46875 -10.328125 C 36.050781 -9.640625 36.34375 -8.789062 36.34375 -7.78125 C 36.34375 -6.40625 35.894531 -5.171875 35 -4.078125 C 34.101562 -2.992188 32.921875 -2.070312 31.453125 -1.3125 C 29.984375 -0.5625 28.378906 0 26.640625 0.375 C 24.910156 0.75 23.207031 0.9375 21.53125 0.9375 Z M 21.53125 0.9375 "/></g></g></g><g clip-path="url(#2a7127f57f)"><g fill="#eeede8" fill-opacity="1"><g transform="translate(593.526644, 92.322657)"><g><path d="M 6.78125 -31.390625 C 6.78125 -34.148438 6.570312 -36.492188 6.15625 -38.421875 C 5.738281 -40.347656 5.222656 -42 4.609375 -43.375 C 4.003906 -44.757812 3.398438 -45.992188 2.796875 -47.078125 C 2.191406 -48.171875 1.675781 -49.25 1.25 -50.3125 C 0.832031 -51.382812 0.625 -52.585938 0.625 -53.921875 C 0.625 -55.390625 1.207031 -56.53125 2.375 -57.34375 C 3.550781 -58.164062 5.039062 -58.835938 6.84375 -59.359375 C 8.644531 -59.878906 10.488281 -60.390625 12.375 -60.890625 C 13.125 -61.109375 14.070312 -61.375 15.21875 -61.6875 C 16.375 -62 17.546875 -62.3125 18.734375 -62.625 C 19.929688 -62.9375 21 -63.195312 21.9375 -63.40625 C 22.882812 -63.613281 23.566406 -63.71875 23.984375 -63.71875 C 25.023438 -63.71875 26.054688 -63.34375 27.078125 -62.59375 C 28.109375 -61.84375 28.957031 -60.535156 29.625 -58.671875 C 30.300781 -56.804688 30.640625 -54.203125 30.640625 -50.859375 C 30.640625 -48.640625 30.648438 -46.316406 30.671875 -43.890625 C 30.691406 -41.460938 30.703125 -39.160156 30.703125 -36.984375 C 30.703125 -34.804688 30.703125 -32.941406 30.703125 -31.390625 C 30.703125 -28.710938 30.984375 -26.117188 31.546875 -23.609375 C 32.109375 -21.097656 32.773438 -18.734375 33.546875 -16.515625 C 34.328125 -14.296875 35 -12.265625 35.5625 -10.421875 C 36.125 -8.578125 36.40625 -6.96875 36.40625 -5.59375 C 36.40625 -4.082031 36.09375 -2.9375 35.46875 -2.15625 C 34.84375 -1.382812 34.054688 -0.84375 33.109375 -0.53125 C 32.171875 -0.21875 31.226562 -0.0507812 30.28125 -0.03125 C 29.34375 -0.0078125 28.539062 0 27.875 0 L 9.671875 0 C 8.992188 0 8.1875 -0.0078125 7.25 -0.03125 C 6.3125 -0.0507812 5.367188 -0.21875 4.421875 -0.53125 C 3.484375 -0.84375 2.695312 -1.382812 2.0625 -2.15625 C 1.4375 -2.9375 1.125 -4.082031 1.125 -5.59375 C 1.125 -7.257812 1.40625 -9.003906 1.96875 -10.828125 C 2.539062 -12.648438 3.203125 -14.609375 3.953125 -16.703125 C 4.703125 -18.796875 5.359375 -21.046875 5.921875 -23.453125 C 6.492188 -25.859375 6.78125 -28.503906 6.78125 -31.390625 Z M 18.578125 -67.484375 C 17.867188 -67.484375 16.851562 -67.753906 15.53125 -68.296875 C 14.21875 -68.847656 12.816406 -69.601562 11.328125 -70.5625 C 9.847656 -71.53125 8.425781 -72.648438 7.0625 -73.921875 C 5.695312 -75.203125 4.585938 -76.601562 3.734375 -78.125 C 2.878906 -79.65625 2.453125 -81.257812 2.453125 -82.9375 C 2.453125 -84.613281 2.816406 -86.078125 3.546875 -87.328125 C 4.273438 -88.585938 5.222656 -89.570312 6.390625 -90.28125 C 7.566406 -90.988281 8.847656 -91.34375 10.234375 -91.34375 C 12.160156 -91.34375 13.800781 -90.796875 15.15625 -89.703125 C 16.519531 -88.617188 17.660156 -87.515625 18.578125 -86.390625 C 19.546875 -87.515625 20.707031 -88.617188 22.0625 -89.703125 C 23.425781 -90.796875 25.070312 -91.34375 27 -91.34375 C 28.375 -91.34375 29.65625 -90.988281 30.84375 -90.28125 C 32.039062 -89.570312 32.992188 -88.585938 33.703125 -87.328125 C 34.421875 -86.078125 34.78125 -84.613281 34.78125 -82.9375 C 34.78125 -81.257812 34.347656 -79.65625 33.484375 -78.125 C 32.628906 -76.601562 31.519531 -75.203125 30.15625 -73.921875 C 28.800781 -72.648438 27.367188 -71.53125 25.859375 -70.5625 C 24.359375 -69.601562 22.957031 -68.847656 21.65625 -68.296875 C 20.363281 -67.753906 19.335938 -67.484375 18.578125 -67.484375 Z M 18.578125 -67.484375 "/></g></g></g></g><g fill="#eeede8" fill-opacity="1"><g transform="translate(626.794367, 92.322657)"><g><path d="M 1.5625 -31.390625 C 1.5625 -35.828125 2.203125 -39.789062 3.484375 -43.28125 C 4.765625 -46.78125 6.519531 -49.816406 8.75 -52.390625 C 10.988281 -54.960938 13.570312 -57.085938 16.5 -58.765625 C 19.4375 -60.441406 22.566406 -61.6875 25.890625 -62.5 C 29.222656 -63.3125 32.601562 -63.71875 36.03125 -63.71875 C 41.3125 -63.71875 45.957031 -62.921875 49.96875 -61.328125 C 53.988281 -59.742188 57.128906 -57.410156 59.390625 -54.328125 C 61.648438 -51.253906 62.78125 -47.519531 62.78125 -43.125 C 62.78125 -41.375 62.507812 -39.640625 61.96875 -37.921875 C 61.425781 -36.203125 60.628906 -34.628906 59.578125 -33.203125 C 58.535156 -31.785156 57.226562 -30.65625 55.65625 -29.8125 C 54.082031 -28.976562 52.269531 -28.5625 50.21875 -28.5625 C 47.164062 -28.5625 44.820312 -29.144531 43.1875 -30.3125 C 41.5625 -31.488281 40.441406 -33 39.828125 -34.84375 C 39.222656 -36.6875 38.921875 -38.59375 38.921875 -40.5625 C 38.921875 -41.644531 38.867188 -42.675781 38.765625 -43.65625 C 38.660156 -44.644531 38.390625 -45.460938 37.953125 -46.109375 C 37.515625 -46.765625 36.769531 -47.09375 35.71875 -47.09375 C 34.21875 -47.09375 32.835938 -46.554688 31.578125 -45.484375 C 30.328125 -44.421875 29.25 -43.0625 28.34375 -41.40625 C 27.445312 -39.75 26.742188 -38.007812 26.234375 -36.1875 C 25.734375 -34.375 25.484375 -32.710938 25.484375 -31.203125 C 25.484375 -28.066406 25.867188 -25.492188 26.640625 -23.484375 C 27.421875 -21.472656 28.414062 -19.898438 29.625 -18.765625 C 30.84375 -17.640625 32.171875 -16.847656 33.609375 -16.390625 C 35.054688 -15.929688 36.429688 -15.703125 37.734375 -15.703125 C 39.617188 -15.703125 41.238281 -15.984375 42.59375 -16.546875 C 43.957031 -17.109375 45.179688 -17.742188 46.265625 -18.453125 C 47.359375 -19.171875 48.445312 -19.8125 49.53125 -20.375 C 50.625 -20.9375 51.816406 -21.21875 53.109375 -21.21875 C 54.535156 -21.21875 55.757812 -20.867188 56.78125 -20.171875 C 57.8125 -19.484375 58.648438 -18.609375 59.296875 -17.546875 C 59.941406 -16.484375 60.421875 -15.382812 60.734375 -14.25 C 61.054688 -13.125 61.21875 -12.097656 61.21875 -11.171875 C 61.21875 -9.285156 60.304688 -7.410156 58.484375 -5.546875 C 56.660156 -3.691406 53.851562 -2.144531 50.0625 -0.90625 C 46.28125 0.320312 41.414062 0.9375 35.46875 0.9375 C 29.945312 0.9375 25.082031 0.03125 20.875 -1.78125 C 16.664062 -3.601562 13.128906 -6.0625 10.265625 -9.15625 C 7.398438 -12.257812 5.234375 -15.734375 3.765625 -19.578125 C 2.296875 -23.429688 1.5625 -27.367188 1.5625 -31.390625 Z M 1.5625 -31.390625 "/></g></g></g><g fill="#eeede8" fill-opacity="1"><g transform="translate(689.878121, 92.322657)"><g><path d="M 37.796875 -15 C 37.796875 -16.132812 37.28125 -17.054688 36.25 -17.765625 C 35.226562 -18.472656 33.859375 -19.085938 32.140625 -19.609375 C 30.421875 -20.140625 28.484375 -20.65625 26.328125 -21.15625 C 24.179688 -21.65625 21.96875 -22.25 19.6875 -22.9375 C 17.40625 -23.632812 15.1875 -24.503906 13.03125 -25.546875 C 10.875 -26.597656 8.9375 -27.925781 7.21875 -29.53125 C 5.5 -31.144531 4.125 -33.125 3.09375 -35.46875 C 2.070312 -37.8125 1.5625 -40.640625 1.5625 -43.953125 C 1.5625 -47.296875 2.296875 -50.203125 3.765625 -52.671875 C 5.234375 -55.140625 7.234375 -57.191406 9.765625 -58.828125 C 12.296875 -60.460938 15.179688 -61.6875 18.421875 -62.5 C 21.671875 -63.3125 25.050781 -63.71875 28.5625 -63.71875 C 30.613281 -63.71875 32.875 -63.601562 35.34375 -63.375 C 37.8125 -63.144531 40.28125 -62.75 42.75 -62.1875 C 45.21875 -61.625 47.488281 -60.835938 49.5625 -59.828125 C 51.632812 -58.828125 53.296875 -57.5625 54.546875 -56.03125 C 55.804688 -54.5 56.4375 -52.644531 56.4375 -50.46875 C 56.4375 -47.789062 55.554688 -45.769531 53.796875 -44.40625 C 52.046875 -43.050781 49.832031 -42.375 47.15625 -42.375 C 44.851562 -42.375 42.8125 -42.632812 41.03125 -43.15625 C 39.25 -43.6875 37.65625 -44.335938 36.25 -45.109375 C 34.851562 -45.878906 33.535156 -46.648438 32.296875 -47.421875 C 31.066406 -48.203125 29.863281 -48.851562 28.6875 -49.375 C 27.519531 -49.894531 26.265625 -50.15625 24.921875 -50.15625 C 24.210938 -50.15625 23.46875 -50.007812 22.6875 -49.71875 C 21.914062 -49.425781 21.53125 -48.78125 21.53125 -47.78125 C 21.53125 -46.851562 22.050781 -46.078125 23.09375 -45.453125 C 24.144531 -44.828125 25.550781 -44.257812 27.3125 -43.75 C 29.070312 -43.25 31.035156 -42.738281 33.203125 -42.21875 C 35.378906 -41.695312 37.640625 -41.078125 39.984375 -40.359375 C 42.328125 -39.648438 44.585938 -38.78125 46.765625 -37.75 C 48.941406 -36.726562 50.910156 -35.460938 52.671875 -33.953125 C 54.429688 -32.453125 55.832031 -30.644531 56.875 -28.53125 C 57.925781 -26.414062 58.453125 -23.894531 58.453125 -20.96875 C 58.453125 -16.945312 57.65625 -13.546875 56.0625 -10.765625 C 54.46875 -7.984375 52.300781 -5.734375 49.5625 -4.015625 C 46.820312 -2.296875 43.722656 -1.039062 40.265625 -0.25 C 36.816406 0.539062 33.207031 0.9375 29.4375 0.9375 C 25.925781 0.9375 22.515625 0.726562 19.203125 0.3125 C 15.898438 -0.101562 12.929688 -0.8125 10.296875 -1.8125 C 7.660156 -2.820312 5.566406 -4.191406 4.015625 -5.921875 C 2.460938 -7.660156 1.6875 -9.875 1.6875 -12.5625 C 1.6875 -15.40625 2.535156 -17.648438 4.234375 -19.296875 C 5.929688 -20.953125 8.160156 -21.78125 10.921875 -21.78125 C 12.890625 -21.78125 14.664062 -21.4375 16.25 -20.75 C 17.84375 -20.0625 19.34375 -19.222656 20.75 -18.234375 C 22.15625 -17.253906 23.535156 -16.257812 24.890625 -15.25 C 26.253906 -14.25 27.664062 -13.398438 29.125 -12.703125 C 30.59375 -12.015625 32.207031 -11.671875 33.96875 -11.671875 C 35.132812 -11.710938 36.0625 -12.015625 36.75 -12.578125 C 37.445312 -13.148438 37.796875 -13.957031 37.796875 -15 Z M 37.796875 -15 "/></g></g></g></g></g></svg>